<?xml version="1.0" standalone="no"?>
<!DOCTYPE svg PUBLIC "-//W3C//DTD SVG 20010904//EN"
 "http://www.w3.org/TR/2001/REC-SVG-20010904/DTD/svg10.dtd">
<svg version="1.0" xmlns="http://www.w3.org/2000/svg"
 width="960.000000pt" height="960.000000pt" viewBox="0 0 960.000000 960.000000"
 preserveAspectRatio="xMidYMid meet">
<metadata>
Created by potrace 1.14, written by Peter Selinger 2001-2017
</metadata>
<g transform="translate(0.000000,960.000000) scale(0.100000,-0.100000)"
fill="#000000" stroke="none">
<path d="M9465 7374 c0 -97 -3 -128 -13 -132 -10 -3 -10 -7 -2 -12 13 -8 16
-173 3 -177 -4 -2 -7 -48 -5 -104 2 -64 0 -99 -6 -95 -6 4 -9 -14 -8 -47 4
-63 -1 -77 -24 -77 -10 0 -19 -8 -22 -17 -3 -15 -2 -165 2 -225 1 -17 12 -23
33 -19 5 1 6 -22 3 -51 -3 -29 -5 -57 -5 -63 0 -5 0 -32 1 -60 1 -27 0 -59 -1
-70 0 -11 1 -36 5 -56 4 -25 1 -39 -10 -48 -17 -15 -21 -46 -7 -55 12 -8 2
-77 -13 -96 -14 -17 -14 -79 0 -89 5 -3 9 -13 9 -21 0 -8 6 -14 13 -12 10 2
11 -26 7 -135 -4 -76 -8 -196 -11 -268 -2 -71 -6 -170 -8 -220 -2 -49 -5 -101
-5 -114 -1 -18 -5 -22 -20 -18 -20 5 -37 -28 -20 -39 12 -7 11 -74 -1 -74 -5
0 -10 -9 -10 -20 0 -19 10 -24 37 -21 12 2 12 -66 -2 -479 -4 -96 -7 -200 -8
-230 l-2 -55 -38 -3 c-30 -3 -37 -7 -33 -19 7 -17 -12 -46 -25 -38 -4 3 -4 17
1 30 5 14 8 25 7 26 -1 0 -28 1 -60 2 l-57 2 4 -28 c3 -19 0 -27 -7 -24 -7 2
-11 15 -9 28 2 20 -2 24 -23 24 -23 0 -26 -3 -22 -32 4 -24 1 -30 -10 -26 -11
5 -14 22 -11 82 3 71 2 76 -19 79 -20 3 -28 18 -39 81 -11 56 -22 55 -35 -4
-7 -32 -21 -65 -31 -75 -15 -13 -17 -25 -11 -61 9 -50 6 -109 -6 -109 -4 0 -6
13 -3 28 3 25 1 29 -20 27 -18 -1 -23 -8 -23 -27 0 -15 -3 -30 -7 -34 -5 -4
-8 8 -8 28 0 30 -3 34 -22 33 -18 -1 -23 -8 -22 -28 1 -17 -4 -27 -13 -27 -9
0 -12 9 -8 28 4 23 1 27 -20 27 -21 0 -25 -5 -25 -27 0 -17 -5 -28 -13 -28 -9
0 -12 9 -9 28 3 27 3 27 -50 26 -51 -1 -53 -2 -50 -26 2 -15 -2 -29 -8 -33 -6
-3 -10 -3 -9 2 6 36 -3 58 -24 58 -19 0 -22 -4 -19 -26 2 -15 -2 -30 -9 -34
-9 -6 -11 0 -6 23 4 17 2 34 -2 37 -5 3 -10 173 -11 378 -1 204 -2 386 -4 402
-1 17 3 39 11 50 15 22 17 86 4 101 -13 12 -27 85 -30 158 -2 34 -9 13 -16
-44 -14 -123 -20 -135 -60 -125 -11 2 -29 5 -40 5 -18 0 -21 7 -21 62 0 39 -4
63 -12 66 -8 2 -12 34 -12 102 0 55 -4 109 -9 122 -5 13 -13 32 -17 43 -7 22
-6 83 3 130 3 17 6 39 5 50 -5 155 -11 225 -21 250 -6 17 -14 36 -16 43 -2 6
-20 12 -39 12 -34 0 -34 0 -41 57 -4 32 -9 66 -11 78 -5 22 -9 49 -19 115 -4
25 -9 54 -11 65 -8 42 -17 101 -19 120 -6 61 -29 175 -35 175 -4 0 -13 -35
-20 -77 -7 -43 -13 -85 -15 -93 -2 -8 -6 -37 -9 -65 -4 -27 -11 -72 -16 -100
-9 -47 -13 -71 -26 -155 -6 -45 -12 -91 -13 -107 -1 -8 -15 -13 -35 -13 -32 0
-35 -3 -52 -52 -14 -43 -20 -107 -23 -253 -1 -29 5 -70 11 -81 13 -22 -14
-184 -31 -184 -3 0 -5 -43 -3 -96 1 -53 -1 -101 -6 -108 -5 -6 -9 -34 -8 -63
1 -44 -2 -53 -19 -57 -34 -9 -41 -7 -53 18 -11 25 -28 143 -23 161 1 5 -1 6
-5 2 -4 -4 -9 -22 -10 -40 -5 -66 -16 -122 -27 -136 -11 -13 -10 -78 1 -96 10
-14 9 -844 0 -839 -5 3 -17 7 -28 9 -16 3 -20 -2 -20 -26 0 -16 -5 -29 -10
-29 -6 0 -8 11 -6 25 3 14 2 25 -2 26 -4 0 -15 2 -26 4 -15 3 -17 -2 -14 -26
3 -18 0 -29 -7 -29 -7 0 -11 11 -10 25 2 14 0 25 -3 26 -4 0 -15 2 -24 4 -14
2 -18 -4 -18 -26 0 -16 -4 -29 -9 -29 -6 0 -9 12 -8 26 2 22 -3 27 -21 29 -21
2 -23 -2 -20 -27 3 -18 0 -27 -6 -25 -6 2 -10 14 -10 25 1 12 -1 22 -5 23 -46
6 -47 6 -43 -23 3 -22 0 -28 -15 -28 -16 0 -19 6 -15 28 3 25 1 29 -20 27 -19
-2 -22 -7 -20 -29 2 -17 -2 -26 -11 -26 -10 0 -13 9 -11 28 3 24 0 28 -22 28
-21 0 -25 -4 -21 -23 2 -13 0 -26 -5 -29 -6 -4 -9 28 -7 82 4 88 3 89 -20 89
-25 0 -36 19 -46 78 -3 17 -10 37 -15 46 -8 14 -10 13 -11 -4 -5 -69 -22 -120
-40 -120 -11 0 -14 -17 -11 -88 1 -51 -2 -86 -7 -83 -5 3 -7 15 -4 26 3 11 1
20 -3 21 -5 0 -17 2 -26 4 -14 2 -17 -3 -14 -26 2 -19 -1 -28 -8 -26 -6 2 -10
15 -8 29 2 20 -1 24 -20 23 -18 -1 -23 -7 -22 -29 1 -16 -3 -25 -10 -23 -6 2
-10 15 -8 28 2 21 -1 25 -23 25 -22 0 -25 -3 -21 -28 3 -22 0 -28 -13 -28 -13
0 -18 7 -17 27 1 21 -4 27 -22 28 -21 2 -23 -2 -20 -27 3 -17 0 -27 -6 -25 -6
2 -11 14 -11 27 0 17 -6 24 -23 25 -21 2 -23 -2 -20 -27 3 -18 0 -28 -8 -28
-8 0 -11 10 -8 28 4 23 1 27 -20 28 -20 2 -24 -2 -22 -27 1 -17 -2 -28 -8 -26
-6 2 -11 14 -11 27 0 17 -6 24 -23 25 -19 1 -22 -3 -20 -23 2 -14 -2 -27 -7
-29 -6 -2 -11 9 -10 23 0 21 -5 27 -22 29 -19 1 -22 -3 -19 -27 2 -17 -1 -28
-9 -28 -7 0 -10 11 -7 28 3 25 0 28 -22 28 -24 0 -26 -3 -22 -29 3 -19 0 -27
-7 -24 -7 2 -12 15 -11 28 1 20 -4 25 -23 25 -15 0 -23 -5 -22 -15 3 -31 -1
-41 -15 -41 -10 0 -14 10 -14 32 1 18 -4 34 -10 36 -6 2 -8 18 -6 39 2 19 0
40 -5 47 -5 6 -11 25 -14 41 -3 17 -9 41 -14 55 -5 14 -9 53 -8 88 1 49 -2 65
-15 72 -9 5 -23 27 -30 50 l-14 42 -23 -52 c-12 -28 -26 -49 -31 -46 -5 3 -9
-25 -9 -62 0 -38 -10 -98 -22 -139 -12 -40 -19 -84 -17 -98 3 -15 0 -25 -7
-25 -9 0 -12 -33 -12 -122 1 -147 -2 -161 -26 -155 -11 3 -19 1 -19 -4 0 -5
-9 -9 -19 -9 -14 0 -19 6 -16 20 2 11 0 22 -4 24 -15 9 -34 -13 -35 -41 -1
-22 -5 -28 -23 -27 -20 0 -23 -5 -24 -40 -1 -23 0 -53 1 -68 1 -25 -2 -28 -32
-28 l-34 0 1 110 1 110 -25 1 c-14 0 -41 1 -58 2 -31 2 -50 -14 -38 -33 3 -4
-2 -11 -10 -14 -10 -3 -19 1 -23 12 -7 17 -18 19 -112 21 l-36 1 2 105 1 105
-28 0 c-16 0 -29 3 -30 8 -4 29 -7 87 -13 217 -4 83 -9 175 -11 205 -2 30 -6
116 -9 190 -4 74 -9 171 -11 215 -8 124 -22 404 -30 578 -3 66 -7 123 -11 128
-3 5 -14 9 -25 9 -13 0 -19 7 -19 21 0 16 -6 20 -27 19 -47 -3 -49 -2 -62 53
-18 74 -32 99 -50 91 -26 -12 -365 -11 -373 1 -5 6 -10 7 -17 0 -14 -14 -44
-133 -36 -145 3 -6 3 -10 -2 -10 -4 0 -9 -15 -9 -33 -1 -17 -5 -75 -10 -127
-4 -52 -8 -242 -8 -422 l-1 -328 -35 3 -35 2 -3 125 c-1 68 0 131 4 139 10 22
11 502 2 507 -10 7 -10 364 0 364 4 0 7 102 7 228 l0 227 -45 5 c-37 4 -45 9
-45 25 0 18 -8 20 -88 23 l-88 3 5 -26 c3 -17 0 -25 -10 -25 -8 0 -14 -6 -15
-12 -1 -7 -2 -361 -2 -786 -2 -818 -1 -791 -44 -792 -14 0 -19 101 -5 114 4 4
7 129 7 277 1 250 0 269 -17 269 -16 0 -17 17 -13 243 8 445 11 782 7 794 -2
7 -18 10 -38 9 -36 -4 -60 14 -50 39 6 17 6 17 -99 19 -77 2 -95 -5 -88 -33 3
-13 -2 -20 -19 -24 l-23 -6 0 -288 c0 -250 -2 -288 -15 -286 -13 2 -15 -30
-13 -252 1 -141 6 -263 11 -273 5 -9 9 -117 9 -240 0 -206 -2 -224 -19 -233
-17 -9 -23 -5 -18 16 3 12 2 206 0 220 -2 6 -2 15 -1 20 5 25 2 176 -4 185 -7
11 -71 4 -120 -14 -91 -34 -148 -77 -151 -114 -1 -15 -5 -59 -8 -97 -13 -153
-24 -387 -31 -659 -3 -115 -8 -213 -11 -217 -20 -32 -24 15 -24 258 l0 267
-33 47 c-17 27 -47 56 -65 66 -17 10 -33 20 -33 23 -1 3 -2 297 -3 653 -1 405
-5 651 -11 655 -16 11 -35 50 -35 71 0 18 -49 42 -116 55 -10 3 -38 9 -61 14
-23 5 -88 10 -145 10 -87 -1 -118 -5 -187 -28 -45 -15 -85 -30 -88 -34 -3 -3
-6 -483 -6 -1066 0 -603 -3 -1060 -8 -1060 -5 0 -12 0 -16 0 -5 0 -9 276 -10
612 0 337 -2 619 -2 627 -1 8 -8 11 -21 8 -11 -3 -20 -1 -20 4 0 26 -190 -18
-232 -54 -54 -48 -53 -27 -58 -672 -4 -524 -7 -600 -20 -601 -8 -1 -23 -2 -32
-3 -11 -1 -18 -9 -18 -22 0 -12 -4 -17 -11 -14 -5 4 -20 4 -32 1 -21 -5 -22
-10 -21 -101 1 -75 -2 -97 -14 -104 -11 -6 -16 -36 -20 -129 -4 -100 -7 -121
-21 -125 -45 -11 -46 -5 -46 233 1 124 -3 236 -7 249 -5 12 -9 48 -10 78 -3
70 -13 77 -16 11 -3 -92 -18 -106 -71 -68 -22 17 -32 19 -53 11 -14 -5 -29
-15 -33 -20 -11 -19 -43 -12 -51 11 -3 12 -6 41 -6 65 1 24 -2 43 -6 43 -4 0
-9 -37 -9 -82 -1 -46 -3 -102 -5 -126 -2 -23 1 -42 5 -42 5 0 5 -5 1 -11 -3
-6 -6 -27 -6 -48 1 -34 -2 -36 -29 -37 l-30 -2 3 264 c2 174 0 265 -7 268 -6
2 -10 37 -10 80 0 46 -4 76 -10 76 -6 0 -10 -23 -9 -55 2 -70 -5 -107 -19 -98
-6 4 -8 -2 -4 -16 4 -17 0 -24 -16 -30 -30 -11 -46 -3 -42 20 3 13 -2 19 -15
19 -10 0 -20 6 -22 13 -2 6 -3 87 -2 180 0 92 -3 167 -8 167 -4 0 -8 -5 -8
-11 0 -6 -7 -3 -16 5 -8 9 -21 16 -27 16 -7 0 -13 12 -14 27 0 15 -6 29 -12
31 -6 2 -9 8 -5 13 3 5 1 9 -4 9 -5 0 -9 6 -10 13 0 6 -4 66 -7 132 -4 66 -8
134 -9 150 -2 17 3 40 11 53 13 22 13 22 -7 10 -11 -7 -20 -17 -21 -23 -4 -39
-8 -106 -12 -202 -4 -89 -9 -120 -26 -153 -12 -23 -19 -46 -16 -51 4 -5 -1 -9
-9 -9 -8 0 -22 -7 -30 -16 -9 -8 -16 -11 -16 -5 0 6 -4 11 -9 11 -6 0 -9 -58
-8 -140 1 -77 0 -140 -3 -140 -3 0 -4 -18 -2 -40 3 -32 1 -40 -13 -40 -9 0
-19 -9 -22 -20 -3 -11 -8 -20 -12 -21 -48 -6 -51 -5 -51 18 0 13 -4 23 -8 23
-9 0 -16 63 -14 123 1 20 -3 37 -8 37 -14 0 -22 -18 -11 -25 5 -3 7 -15 4 -28
-5 -18 -14 -427 -13 -588 0 -43 -2 -47 -28 -50 -15 -2 -43 -2 -62 1 l-35 5 0
85 c0 47 -3 101 -7 121 -4 20 -9 50 -10 68 -3 43 -18 39 -18 -5 0 -54 -35 -78
-62 -42 -7 9 -20 18 -28 19 -23 4 -61 -11 -55 -22 4 -5 -5 -9 -18 -9 -27 0
-37 16 -37 61 0 40 -16 37 -18 -3 -1 -18 -5 -46 -10 -63 -4 -16 -8 -167 -8
-334 1 -290 0 -306 -19 -327 -14 -16 -19 -33 -16 -63 2 -34 -1 -41 -16 -41
-10 0 -29 -16 -43 -34 -14 -19 -29 -33 -35 -33 -5 1 -11 -16 -13 -37 -2 -22
-11 -51 -21 -65 -11 -17 -17 -43 -16 -73 1 -27 -1 -48 -4 -49 -4 0 -16 -2 -28
-3 -28 -3 -41 -15 -28 -24 11 -7 13 -108 3 -118 -5 -5 -188 -49 -373 -90 -11
-2 -47 -11 -80 -19 -33 -9 -69 -17 -80 -20 -47 -9 -181 -43 -195 -49 -8 -3
-26 -8 -40 -10 -14 -3 -65 -15 -115 -29 l-90 -23 -3 -78 -3 -78 41 6 c23 3 46
8 51 12 5 3 22 7 37 9 15 2 84 15 152 30 69 14 138 28 154 30 15 2 35 7 45 9
9 3 32 8 51 11 19 3 67 12 105 20 39 8 86 17 105 20 19 3 42 8 50 10 8 2 33 7
55 10 23 3 52 8 65 11 14 3 36 7 50 10 14 2 36 7 50 9 48 10 65 13 110 19 25
3 56 8 70 12 14 3 41 7 60 10 19 2 42 7 50 9 8 3 33 7 55 10 22 3 67 11 100
17 33 5 69 11 80 13 11 1 36 5 55 9 19 3 51 8 70 11 19 2 45 7 57 9 11 3 43 8
70 12 26 3 57 8 68 11 11 2 36 6 55 8 19 2 79 11 134 20 54 9 101 14 104 11 2
-3 12 -2 21 3 9 5 41 11 71 15 30 3 66 8 80 11 14 3 43 7 65 10 22 2 58 7 80
10 151 20 194 26 211 29 10 2 47 7 81 11 35 4 75 9 90 11 54 7 128 16 158 19
17 2 30 4 30 5 0 1 14 3 30 4 29 3 131 14 190 22 66 8 122 14 165 19 25 2 70
7 100 11 30 3 66 8 80 9 14 1 52 5 85 9 33 4 87 9 120 12 33 3 69 7 80 8 11 2
56 6 100 10 44 4 91 9 105 12 14 2 61 6 105 9 44 3 91 8 105 10 23 3 150 15
230 20 19 2 67 6 105 9 124 12 262 22 395 31 30 2 84 6 120 9 36 3 103 8 150
11 47 3 117 8 155 10 39 3 106 7 150 10 44 3 121 7 170 10 50 3 128 8 175 10
47 2 132 6 190 10 199 10 285 15 435 20 83 4 195 8 250 10 159 6 598 17 742
19 73 0 133 5 133 9 0 5 5 5 12 1 7 -4 48 -6 93 -4 97 3 1480 2 1652 -2 76 -2
124 1 126 7 2 5 3 237 1 515 -1 460 -6 634 -20 790 -3 30 -6 102 -7 160 -2
102 -1 105 21 108 16 3 22 10 22 28 0 14 -5 23 -12 22 -14 -3 -14 26 -2 75 5
21 3 28 -7 27 -28 -4 -35 0 -36 23 -1 12 -3 101 -6 198 -2 97 -7 181 -11 187
-3 6 -2 13 3 17 5 3 8 15 5 28 -6 28 -15 132 -18 225 -2 65 -1 72 16 72 11 0
16 5 13 10 -4 6 -2 17 4 24 12 15 8 105 -5 115 -11 7 -10 58 1 84 9 21 -1 51
-15 42 -5 -3 -10 1 -11 9 -3 49 -2 63 5 74 4 7 4 27 0 45 -10 42 -10 70 0 85
4 7 5 25 0 40 -12 44 -8 84 10 94 9 5 16 21 16 37 0 15 3 31 8 35 8 9 10 146
1 146 -3 0 -4 11 -2 24 4 22 2 24 -22 21 l-27 -2 4 63 c2 35 1 65 -4 66 -10 4
-13 162 -3 178 4 7 2 16 -4 20 -14 8 -21 170 -8 170 4 0 4 8 -1 18 -5 9 -8 72
-8 139 1 76 -3 123 -9 123 -6 0 -10 -49 -10 -126z m-745 -3251 c0 -15 -3 -23
-7 -19 -11 10 -11 56 -1 50 4 -3 8 -17 8 -31z m520 -2 c0 -11 -3 -11 -14 -1
-8 6 -12 18 -9 27 5 12 7 12 14 1 5 -7 9 -19 9 -27z m126 14 c1 -8 -2 -17 -7
-21 -5 -3 -9 7 -9 22 0 27 12 26 16 -1z m-1579 -20 c0 -8 -4 -15 -9 -15 -4 0
-8 7 -8 15 0 8 4 15 8 15 5 0 9 -7 9 -15z"/>
<path d="M8151 6676 c-9 -23 -16 -27 -36 -24 -31 6 -32 -5 -4 -24 19 -12 20
-17 10 -37 -12 -21 -11 -22 8 -12 25 14 61 14 61 1 0 -5 5 -10 10 -10 7 0 7 8
-1 22 -10 18 -8 24 7 35 10 7 23 14 28 14 6 1 -5 4 -24 8 -25 4 -36 12 -41 31
l-6 25 -12 -29z"/>
<path d="M1240 4280 c-8 -26 -7 -41 2 -32 6 6 8 16 5 24 -3 7 -6 11 -7 8z"/>
<path d="M1450 4254 c0 -8 5 -12 10 -9 6 3 10 10 10 16 0 5 -4 9 -10 9 -5 0
-10 -7 -10 -16z"/>
</g>
</svg>
