<svg xmlns="http://www.w3.org/2000/svg" style="border: 0 !important; clip: rect(0 0 0 0) !important; height: 1px !important; margin: -1px !important; overflow: hidden !important; padding: 0 !important; position: absolute !important; width: 1px !important;" class="root-svg-symbols-element">
  <defs>
      <clipPath id="clip0"><path fill="#fff" transform="translate(.7 .172)" d="M0 0H20.316V20.637H0z"/></clipPath>
<clipPath id="clip0"><path fill="#fff" transform="translate(.035 .025)" d="M0 0H20.316V20.637H0z"/></clipPath>
  </defs>
    <symbol id="burger" viewBox="0 0 20 20">
      <path d="M0 1.66675L20 1.66675" stroke="#110932" stroke-width="1.5"/><path d="M0 10L20 10" stroke="#110932" stroke-width="1.5"/><path d="M0 18.3335L20 18.3335" stroke="#110932" stroke-width="1.5"/>
    </symbol>
    <symbol id="comand" viewBox="0 0 40 42">
      <path d="M8.48323 9.66714C11.0377 9.66714 13.1085 7.59631 13.1085 5.04182C13.1085 2.48733 11.0377 0.416504 8.48323 0.416504C5.92873 0.416504 3.85791 2.48733 3.85791 5.04182C3.85791 7.59631 5.92873 9.66714 8.48323 9.66714Z" fill="#E5E6ED"/><path d="M19.8792 9.66753C22.434 9.66753 24.505 7.59651 24.505 5.04177C24.505 2.48704 22.434 0.416016 19.8792 0.416016C17.3245 0.416016 15.2535 2.48704 15.2535 5.04177C15.2535 7.59651 17.3245 9.66753 19.8792 9.66753Z" fill="#E5E6ED"/><path d="M31.2177 9.66753C33.7724 9.66753 35.8435 7.59651 35.8435 5.04177C35.8435 2.48704 33.7724 0.416016 31.2177 0.416016C28.663 0.416016 26.5919 2.48704 26.5919 5.04177C26.5919 7.59651 28.663 9.66753 31.2177 9.66753Z" fill="#E5E6ED"/><path d="M26.5051 11.3375H13.3146C12.1874 11.3375 11.2738 12.2512 11.2738 13.3775V25.0393C11.2738 26.167 12.1874 27.0793 13.3146 27.0793H13.9424V41.5015H25.6367V27.0793H26.5051C27.6323 27.0793 28.545 26.1665 28.545 25.0393V13.3775C28.5446 12.2516 27.6323 11.3375 26.5051 11.3375Z" fill="#E5E6ED"/><path d="M8.39637 25.0397V13.3778C8.39637 12.6485 8.56607 11.9617 8.85186 11.3379H2.03994C0.913632 11.3379 0 12.2515 0 13.3778V25.0397C0 26.1673 0.913632 27.0796 2.03994 27.0796H2.66823V41.5019H11.0642V29.4129C9.48103 28.5959 8.39637 26.9418 8.39637 25.0397Z" fill="#E5E6ED"/><path d="M37.9596 11.3375H30.9683C31.254 11.9614 31.4242 12.6486 31.4242 13.3775V25.0393C31.4242 27.0367 30.2279 28.7577 28.5149 29.5277V41.5015H37.0921V27.0793H37.9592C39.0859 27.0793 40 26.1665 40 25.0393V13.3775C40.0005 12.2516 39.0859 11.3375 37.9596 11.3375Z" fill="#E5E6ED"/>
    </symbol>
    <symbol id="expert" viewBox="0 0 34 45">
      <path d="M13.5125 4.29581C14.0496 4.45055 14.623 6.05257 16.6119 5.93424C18.5234 5.82046 18.7236 4.35953 19.3153 4.19113C20.6169 3.78608 22.4693 5.25611 23.3522 6.08898C23.4842 4.63715 23.243 2.66648 21.8958 2.68014C21.2859 2.68014 20.8536 2.68014 20.7125 1.90643C20.353 -1.01543 10.3494 -1.16107 10.3676 5.64751C11.2215 4.83674 12.3367 4.3574 13.5125 4.29581Z" fill="#E5E6ED"/><path d="M22.2963 6.95823C21.5408 6.27555 20.5031 5.54281 19.8978 5.48364C18.2867 7.81385 14.9461 7.93673 12.9936 5.62473C12.1708 5.89595 11.4396 6.39076 10.8819 7.0538V8.5557C10.8984 9.67676 11.2471 10.7677 11.8839 11.6905C12.5208 12.6133 13.417 13.3264 14.4593 13.7396C15.5015 14.1528 16.643 14.2475 17.7391 14.0118C18.8352 13.776 19.8367 13.2203 20.6169 12.4151C22.3463 10.6811 22.2963 9.06088 22.2963 6.95823Z" fill="#E5E6ED"/><path d="M12.6022 14.2175C12.6022 14.6225 12.5658 15.3462 12.5476 15.7558C12.9273 16.5072 13.508 17.1385 14.2252 17.5796C14.9423 18.0206 15.7677 18.2541 16.6095 18.2541C17.4514 18.2541 18.2768 18.0206 18.9939 17.5796C19.711 17.1385 20.2917 16.5072 20.6715 15.7558C20.6715 15.3962 20.6305 14.6043 20.6214 14.1947C19.4464 15.0153 18.0486 15.4572 16.6154 15.4613C15.1822 15.4654 13.7819 15.0314 12.6022 14.2175Z" fill="#E5E6ED"/><path d="M33.2237 22.4915H31.8583V17.3623C31.8571 16.4806 31.5613 15.6247 31.0179 14.9304C30.4745 14.2361 29.7146 13.7432 28.8591 13.5302C28.7612 13.085 28.5103 12.6883 28.1501 12.4091C27.7899 12.1298 27.3432 11.9857 26.8877 12.0018C26.4322 12.018 25.9968 12.1933 25.6572 12.4974C25.3177 12.8014 25.0955 13.2149 25.0294 13.6659C24.9632 14.1168 25.0573 14.5767 25.2952 14.9654C25.5332 15.3542 25.8999 15.6472 26.3316 15.7934C26.7633 15.9397 27.2326 15.9299 27.6578 15.7659C28.083 15.6018 28.4373 15.2938 28.6588 14.8955C29.1861 15.0596 29.6472 15.3878 29.9747 15.8324C30.3022 16.277 30.479 16.8146 30.4793 17.3668V22.496H28.7817C28.7817 21.2354 28.8136 20.5709 27.5984 19.3603C26.2103 17.9721 23.5023 17.0847 21.7319 16.6569C21.2124 17.5556 20.4657 18.3018 19.5665 18.8206C18.6674 19.3394 17.6476 19.6125 16.6096 19.6125C15.5715 19.6125 14.5517 19.3394 13.6526 18.8206C12.7535 18.3018 12.0067 17.5556 11.4872 16.6569C9.66673 17.0801 6.99063 17.9904 5.62527 19.3557C4.4101 20.5709 4.42376 21.2399 4.44196 22.5051H0V25.2358H33.2237V22.4915ZM26.9658 14.5269C26.8541 14.5268 26.7448 14.4939 26.6517 14.4321C26.5586 14.3704 26.4857 14.2826 26.4422 14.1797C26.3986 14.0768 26.3864 13.9634 26.4069 13.8535C26.4274 13.7437 26.4798 13.6423 26.5575 13.5621C26.6353 13.4819 26.7349 13.4263 26.8441 13.4023C26.9532 13.3784 27.067 13.3871 27.1712 13.4274C27.2754 13.4676 27.3655 13.5377 27.4301 13.6288C27.4948 13.72 27.5311 13.8281 27.5347 13.9398C27.5371 14.016 27.5242 14.092 27.4967 14.1631C27.4692 14.2342 27.4277 14.2991 27.3747 14.3539C27.3216 14.4087 27.258 14.4522 27.1878 14.4819C27.1176 14.5116 27.0421 14.5269 26.9658 14.5269Z" fill="#E5E6ED"/><path d="M27.7623 33.8694H28.6133L32.9188 26.5875H27.7623V33.8694Z" fill="#E5E6ED"/><path d="M3.95952 33.8694H5.00629V26.5875H0.259399L3.95952 33.8694Z" fill="#E5E6ED"/><path d="M26.3969 26.5875H6.3717V44.2689H26.3969V26.5875Z" fill="#E5E6ED"/>
    </symbol>
    <symbol id="facebook" viewBox="0 0 14 25">
      <mask id="mask0" maskUnits="userSpaceOnUse" x="0" y="0" width="14" height="25"><path d="M0.0445557 0.799316H13.7456V24.7192H0.0445557V0.799316Z" fill="#171B31"/></mask><g mask="url(#mask0)"><path fill-rule="evenodd" clip-rule="evenodd" d="M8.26582 24.7192V13.8083H12.3052L12.9101 9.55589H8.26582V6.84111C8.26582 5.6101 8.64265 4.77101 10.5899 4.77101L13.0737 4.77008V0.96673C12.644 0.915063 11.1697 0.799316 9.45449 0.799316C5.87376 0.799316 3.42248 2.78082 3.42248 6.42033V9.55589H-0.627319V13.8083H3.42248V24.7192H8.26582Z" fill="#171B31"/></g>
    </symbol>
    <symbol id="instagram" viewBox="0 0 22 21">
      <g clip-path="url(#clip0)" fill="#171B31"><path d="M15.4098 0.171875H6.30664C3.21525 0.171875 0.700195 2.72675 0.700195 5.86694V15.1138C0.700195 18.2541 3.21525 20.8089 6.30664 20.8089H15.4098C18.5014 20.8089 21.0165 18.254 21.0165 15.1138V5.86694C21.0166 2.72675 18.5014 0.171875 15.4098 0.171875ZM19.2141 15.1138C19.2141 17.2445 17.5075 18.9779 15.4099 18.9779H6.30664C4.20918 18.978 2.50276 17.2445 2.50276 15.1138V5.86694C2.50276 3.73637 4.20918 2.00289 6.30664 2.00289H15.4098C17.5074 2.00289 19.2139 3.73637 19.2139 5.86694V15.1138H19.2141Z"/><path d="M10.8584 5.1731C7.97175 5.1731 5.62338 7.55854 5.62338 10.4907C5.62338 13.4228 7.97175 15.8081 10.8584 15.8081C13.745 15.8081 16.0934 13.4228 16.0934 10.4907C16.0934 7.55854 13.745 5.1731 10.8584 5.1731ZM10.8584 13.977C8.96581 13.977 7.42594 12.4131 7.42594 10.4906C7.42594 8.56804 8.96569 7.00399 10.8584 7.00399C12.7511 7.00399 14.2908 8.56804 14.2908 10.4906C14.2908 12.4131 12.7509 13.977 10.8584 13.977Z"/><path d="M16.3129 3.62036C15.9656 3.62036 15.6244 3.76318 15.3792 4.01342C15.1327 4.26244 14.991 4.60911 14.991 4.96311C14.991 5.316 15.1328 5.66255 15.3792 5.91279C15.6243 6.16181 15.9656 6.30585 16.3129 6.30585C16.6614 6.30585 17.0015 6.16181 17.2478 5.91279C17.4942 5.66255 17.6348 5.31588 17.6348 4.96311C17.6348 4.60911 17.4942 4.26244 17.2478 4.01342C17.0027 3.76318 16.6614 3.62036 16.3129 3.62036Z"/></g>
    </symbol>
    <symbol id="planet" viewBox="0 0 44 44">
      <path d="M22 0C9.86024 0 0 9.86024 0 22C0 34.1398 9.86024 44 22 44C34.1398 44 44 34.1398 44 22C44 9.86024 34.1398 0 22 0ZM38.2747 11.6627L38.6458 11.3976C39.441 12.6169 40.0771 13.9422 40.6072 15.3205L39.3349 16.2747C38.8578 16.6458 38.1687 16.3277 38.1157 15.6916L37.9566 12.2988C37.9566 12.0337 38.0626 11.8217 38.2747 11.6627ZM9.43614 33.1325L8.32289 36.1542C6.36145 34.2458 4.8241 31.9663 3.76386 29.4217L6.89157 27.9904C7.42169 27.7783 8.00482 27.9904 8.16386 28.5205L9.48916 32.4964C9.48916 32.7084 9.48916 32.9735 9.43614 33.1325ZM30.747 28.5735L29.2626 31.7012C29.2096 31.8072 29.1036 31.9133 28.9976 32.0193L27.9374 32.7084C27.7783 32.8145 27.6193 33.0265 27.6193 33.2386L26.347 41.2434C25.7108 41.4024 25.0747 41.5084 24.4386 41.5614L22.5301 40.6072C22.3181 40.5012 22.159 40.2892 22.106 40.0241L20.9398 31.7012C20.9398 31.5422 20.8337 31.3831 20.7277 31.2241L17.547 28.2554C17.3349 28.0434 17.2289 27.6723 17.388 27.4072L18.5012 24.8627C18.6072 24.5976 18.5542 24.2795 18.3422 24.0145L13.7831 19.2434C13.7301 19.1374 13.6241 19.0843 13.6241 18.9783L11.5566 12.6169C11.4506 12.2988 11.1855 12.0867 10.8675 12.0867L8.11084 11.9277C7.68675 11.9277 7.42169 11.5566 7.42169 11.1855C7.42169 11.0265 7.4747 10.8145 7.63373 10.7084L10.9205 6.94458C11.0795 6.78554 11.3446 6.67952 11.5566 6.67952L15.7976 7.10361C15.9036 7.10361 15.9566 7.10361 16.0627 7.10361L24.6506 5.14217C25.1807 5.03615 25.6578 5.46024 25.5518 5.99036L25.4458 6.62651C25.4458 6.78554 25.3398 6.94458 25.2337 7.0506L24.4386 7.84578C24.1205 8.16386 24.1205 8.64096 24.4386 8.90602L26.612 11.0795C26.9301 11.3976 26.9301 11.8747 26.612 12.1398L20.4096 18.4482C20.2506 18.6072 20.1976 18.7663 20.1976 18.9783V22.3181C20.1976 22.6892 20.4627 23.0072 20.8337 23.0602L27.7253 24.3855C27.8843 24.4386 28.0434 24.4916 28.1494 24.6506L30.694 27.8313C30.8 28.0434 30.853 28.3614 30.747 28.5735ZM34.4048 7.52771C34.4048 7.8988 34.1928 8.26988 33.8747 8.42892L29.6867 10.8145C29.1566 11.1325 28.4145 10.8675 28.2024 10.2843L27.6723 8.90602C27.4602 8.42892 27.5133 7.84578 27.7783 7.42169L28.8386 5.46024C28.9976 5.14217 29.3687 4.93012 29.7398 4.93012H31.7542C32.6554 5.46024 33.5566 6.04337 34.3518 6.73253V7.52771H34.4048ZM39.9181 29.4747L34.9349 26.241C34.6169 26.0289 34.5108 25.6578 34.6169 25.3398L36.3133 20.6217C36.3663 20.4627 36.4723 20.3566 36.6313 20.2506L41.1373 17.2289C41.5084 18.7663 41.7205 20.3566 41.7205 21.947C41.7205 24.7036 41.1373 27.3012 40.1301 29.6867C40.0771 29.6337 40.0241 29.5277 39.9181 29.4747Z" fill="#E5E6ED"/>
    </symbol>
    <symbol id="puzzle" viewBox="0 0 51 49">
      <path d="M37.7563 18.7737C38.4313 17.6237 38.4625 16.1924 37.8813 15.0049C37.2625 13.8174 36.1813 13.0424 34.9125 12.8299C33.6375 12.6362 32.35 13.0612 31.4313 13.9612C31.0063 14.3862 30.6688 14.9174 30.475 15.4987L27.025 12.0487L30.95 8.12368C31.3188 7.75493 31.4625 7.20493 31.3063 6.71118C31.15 6.21743 30.7063 5.84243 30.175 5.77368C29.7 5.70493 29.275 5.47368 28.9188 5.13618C28.425 4.64243 28.1938 3.91743 28.3 3.21118C28.425 2.48618 28.85 1.88618 29.5375 1.52993C30.175 1.19243 30.9688 1.22993 31.6063 1.57993C32.225 1.94868 32.6125 2.53618 32.7375 3.20493C32.8063 3.73618 33.1813 4.17993 33.675 4.33618C34.1688 4.49243 34.7 4.37368 35.0688 3.99868L39.0125 0.0549316L51 12.0549L39.0125 24.0424L35.5625 20.5924C36.4875 20.2799 37.2625 19.6424 37.7563 18.7737Z" fill="#E5E6ED"/><path d="M21.9188 43.9862C22.2188 43.9674 22.5375 43.9362 22.8375 43.8612C24.1125 43.5049 25.1563 42.5362 25.575 41.2799C25.9813 40.0049 25.7688 38.6987 25.0063 37.6362C24.1563 36.4862 22.6875 35.8862 21.2938 36.0299C20.85 36.0487 20.4125 36.1362 19.9875 36.3112V31.5237H25.5375C26.0688 31.5237 26.5438 31.2425 26.775 30.78C27.025 30.305 26.9688 29.7362 26.6688 29.3112C26.3688 28.9237 26.2063 28.4612 26.2063 27.9675C26.2063 27.2612 26.5625 26.5862 27.125 26.1612C27.725 25.7362 28.4688 25.6112 29.1938 25.8612C29.8813 26.0737 30.4313 26.655 30.6063 27.3487C30.8 28.055 30.6563 28.7425 30.25 29.3112C29.95 29.7362 29.8938 30.2987 30.125 30.78C30.375 31.2425 30.8313 31.5237 31.3625 31.5237H36.9313V48.4799H19.975V43.7049C20.5875 43.9549 21.2438 44.055 21.9188 43.9862Z" fill="#E5E6ED" stroke="#0C082B"/><path d="M5.60002 34.3674C5.95627 35.6612 6.94377 36.6987 8.18127 37.0924C8.20002 37.1112 8.20002 37.1112 8.21877 37.1112C8.21877 37.1112 8.23752 37.1112 8.25627 37.1299C8.51877 37.1987 8.76877 37.2549 9.03127 37.2737C9.11877 37.2924 9.20627 37.2924 9.31252 37.2924C9.36252 37.3112 9.41877 37.3112 9.48752 37.3112C9.53752 37.3112 9.59377 37.2924 9.64377 37.2924C9.96252 37.2737 10.2625 37.2237 10.5625 37.1487C10.6313 37.1112 10.7188 37.0987 10.7938 37.0799C11.1625 36.9549 11.5188 36.7987 11.8375 36.5487C12.8813 35.7862 13.5 34.5799 13.5 33.2924C13.5 32.6924 13.3563 32.0924 13.0938 31.5237H17.9563V37.0924C17.9563 37.6237 18.2563 38.0799 18.7188 38.3299C19.0188 38.4737 19.3375 38.5049 19.6563 38.4362C19.9375 38.4174 20.225 38.3487 20.45 38.1737C20.8563 37.8924 21.3688 37.7862 21.8813 37.8174C22.45 37.9237 22.975 38.2049 23.3125 38.6862C23.7375 39.2674 23.8625 40.0299 23.6313 40.7549C23.4188 41.4237 22.8375 41.9924 22.1313 42.1674C22.0063 42.2049 21.8688 42.2174 21.7438 42.2174C21.2688 42.2174 20.825 42.0924 20.4375 41.8112C20.2063 41.6362 19.9063 41.5612 19.6063 41.5612C19.3063 41.5112 18.9875 41.5424 18.725 41.6862C18.2625 41.9174 17.9625 42.3924 17.9625 42.9049V48.4737H1.02502V31.5237H5.88752C5.45627 32.4049 5.35002 33.3799 5.60002 34.3674Z" fill="#E5E6ED" stroke="#0C082B"/><path d="M17.9563 17.68C17.075 17.255 16.0813 17.1675 15.1125 17.4175C13.8188 17.7737 12.7813 18.7612 12.375 19.9987C11.9688 21.2737 12.1813 22.5987 12.9438 23.6425C14.0563 25.18 16.25 25.73 17.9625 24.88V29.7612H12.3938C11.8813 29.7612 11.4063 30.0425 11.1563 30.5237C10.925 30.9862 10.9625 31.5487 11.2813 31.9737C11.5813 32.38 11.725 32.8425 11.725 33.3175C11.725 34.0237 11.3875 34.6987 10.8063 35.1237C10.225 35.5487 9.46253 35.6737 8.75628 35.4425C8.08753 35.2112 7.53753 34.63 7.34378 33.9237C7.16878 33.255 7.29378 32.5425 7.68128 31.9987C7.70003 31.98 7.70003 31.9487 7.71878 31.93C7.80628 31.7862 7.87502 31.6487 7.91252 31.4862C7.93127 31.4362 7.95003 31.3612 7.95003 31.3112C7.96878 31.1362 7.95002 30.9737 7.91252 30.7987C7.89377 30.7612 7.91253 30.7487 7.89377 30.7112C7.89377 30.6737 7.85627 30.6612 7.84377 30.6237C7.82502 30.5862 7.82503 30.555 7.80628 30.5175C7.75628 30.3925 7.66252 30.2862 7.57502 30.1987C7.53752 30.1612 7.52502 30.1487 7.48752 30.13C7.34377 30.005 7.18752 29.8987 6.99377 29.8487C6.94377 29.83 6.90628 29.83 6.85003 29.8112C6.78128 29.7925 6.72503 29.7737 6.65628 29.7737H1.00003V12.7987H17.9563V17.68Z" fill="#E5E6ED" stroke="#0C082B"/>
    </symbol>
    <symbol id="telegram" viewBox="0 0 28 25">
      <path opacity=".5" d="M10.9692 16.4984L21.3458 24.6595C22.5301 25.355 23.3845 24.9948 23.6795 23.4893L27.9034 2.30083C28.3357 0.455235 27.2425 -0.382134 26.1095 0.165377L1.30724 10.3461C-0.385727 11.069 -0.375642 12.0745 0.998688 12.5224L7.36352 14.6373L22.0988 4.74122C22.7944 4.29215 23.433 4.53336 22.909 5.02856" fill="#8896B5"/>
    </symbol>
    <symbol id="vk" viewBox="0 0 27 14">
      <path fill-rule="evenodd" clip-rule="evenodd" d="M13.0548 13.3494H14.6345C14.6345 13.3494 15.1117 13.3028 15.3558 13.0693C15.58 12.8548 15.5728 12.4523 15.5728 12.4523C15.5728 12.4523 15.5421 10.5679 16.5257 10.2901C17.4956 10.0168 18.7412 12.1115 20.0611 12.9173C21.0594 13.5269 21.818 13.3934 21.818 13.3934L25.348 13.3494C25.348 13.3494 27.1944 13.2482 26.3187 11.9577C26.2471 11.852 25.8089 11.0029 23.6942 9.25766C21.4806 7.43149 21.7774 7.72678 24.4434 4.56745C26.0671 2.64344 26.7162 1.46888 26.5134 0.966079C26.3202 0.486792 25.1257 0.613258 25.1257 0.613258L21.1514 0.635163C21.1514 0.635163 20.8567 0.599531 20.6383 0.715629C20.4246 0.829536 20.2876 1.09488 20.2876 1.09488C20.2876 1.09488 19.6583 2.58356 18.8197 3.84969C17.0498 6.5214 16.3422 6.66291 16.0529 6.49672C15.3798 6.10988 15.5481 4.94364 15.5481 4.11489C15.5481 1.52525 15.9898 0.445902 14.6877 0.166536C14.2559 0.0738041 13.9377 0.0126154 12.8326 0.0023929C11.4147 -0.0101661 10.2144 0.00633585 9.53488 0.302495C9.08267 0.499351 8.73378 0.937894 8.94633 0.963304C9.20915 0.994118 9.80378 1.10569 10.1193 1.48728C10.5267 1.97986 10.5124 3.08636 10.5124 3.08636C10.5124 3.08636 10.7465 6.13412 9.9659 6.51279C9.43025 6.77229 8.69534 6.24218 7.11745 3.81815C6.30929 2.57656 5.69873 1.20426 5.69873 1.20426C5.69873 1.20426 5.58112 0.947679 5.37119 0.810552C5.11659 0.644071 4.76064 0.591353 4.76064 0.591353L0.983785 0.613258C0.983785 0.613258 0.41692 0.627277 0.208802 0.846768C0.0235153 1.04173 0.194018 1.44464 0.194018 1.44464C0.194018 1.44464 3.15055 7.59491 6.49868 10.6941C9.56905 13.5359 13.0548 13.3494 13.0548 13.3494Z" fill="#171B31"/>
    </symbol>
    <symbol id="youtube" viewBox="0 0 21 21">
      <g clip-path="url(#clip0)"><path d="M16.049 15.1208H14.9341L14.9393 14.4629C14.9393 14.1705 15.1756 13.9314 15.4643 13.9314H15.5355C15.8249 13.9314 16.0619 14.1705 16.0619 14.4629L16.049 15.1208ZM11.867 13.711C11.5841 13.711 11.3528 13.9041 11.3528 14.1405V17.3399C11.3528 17.5759 11.5841 17.7685 11.867 17.7685C12.151 17.7685 12.3826 17.5759 12.3826 17.3399V14.1405C12.3826 13.9039 12.151 13.711 11.867 13.711ZM18.6588 11.9213V18.0079C18.6588 19.4679 17.4125 20.6625 15.889 20.6625H4.49844C2.97448 20.6625 1.72841 19.4679 1.72841 18.0079V11.9213C1.72841 10.4614 2.97448 9.26646 4.49844 9.26646H15.889C17.4125 9.26646 18.6588 10.4614 18.6588 11.9213ZM5.25828 18.6687L5.25737 12.2572L6.66936 12.2577V11.3077L2.90541 11.302V12.2359L4.08037 12.2394V18.6687H5.25828ZM9.49087 13.2123H8.31364V16.636C8.31364 17.1313 8.34321 17.3789 8.31184 17.4663C8.21612 17.7318 7.78587 18.0139 7.61814 17.4949C7.5897 17.4041 7.61476 17.1301 7.61431 16.6596L7.60956 13.2123H6.43889L6.4425 16.6055C6.4434 17.1255 6.43098 17.5133 6.44656 17.6898C6.47523 18.001 6.46507 18.3638 6.74928 18.5711C7.27886 18.9586 8.294 18.5133 8.54796 17.9593L8.5457 18.6662L9.49109 18.6674L9.49087 13.2123ZM13.2569 17.1329L13.2544 14.2833C13.2535 13.1974 12.4537 12.5471 11.3681 13.4258L11.3728 11.3072L10.197 11.3091L10.1913 18.6215L11.1584 18.6073L11.2464 18.1519C12.4819 19.3032 13.2587 18.5142 13.2569 17.1329ZM16.9411 16.7552L16.0585 16.76C16.058 16.7956 16.0567 16.8366 16.0562 16.8813V17.3817C16.0562 17.6495 15.8384 17.8676 15.5738 17.8676H15.4009C15.1359 17.8676 14.9181 17.6495 14.9181 17.3817V17.3262V16.7759V16.0657H16.9393V15.293C16.9393 14.7282 16.9251 14.1637 16.879 13.8408C16.7344 12.8195 15.323 12.6574 14.6102 13.1802C14.3864 13.3434 14.2156 13.562 14.1162 13.8555C14.016 14.1492 13.9661 14.5505 13.9661 15.0602V16.7593C13.9666 19.5839 17.3441 19.1847 16.9411 16.7552ZM12.4133 7.53088C12.474 7.68085 12.5684 7.80238 12.6963 7.8941C12.8228 7.98444 12.9844 8.02984 13.1781 8.02984C13.3478 8.02984 13.4982 7.98329 13.6291 7.88722C13.7596 7.7916 13.8695 7.64874 13.9594 7.45819L13.937 7.92734H15.2492V2.25879H14.2162V6.67054C14.2162 6.90948 14.0226 7.10507 13.7858 7.10507C13.5503 7.10507 13.356 6.90948 13.356 6.67054V2.25879H12.2778V6.08216C12.2778 6.56919 12.2866 6.89388 12.3009 7.05852C12.3155 7.22201 12.3525 7.37886 12.4133 7.53088ZM8.43667 4.32938C8.43667 3.78524 8.48136 3.36035 8.57008 3.054C8.65947 2.7488 8.81997 2.50345 9.05248 2.3184C9.28432 2.13244 9.58116 2.03934 9.94212 2.03934C10.2457 2.03934 10.5058 2.09988 10.7229 2.21843C10.9412 2.33767 11.1096 2.49244 11.2263 2.68345C11.3453 2.87515 11.4261 3.07212 11.4692 3.27367C11.5133 3.47798 11.5349 3.78616 11.5349 4.20189V5.63548C11.5349 6.16127 11.5142 6.5481 11.4738 6.79368C11.4338 7.03995 11.348 7.26833 11.2151 7.4825C11.0841 7.69437 10.915 7.85282 10.7101 7.95394C10.5028 8.05598 10.2658 8.10597 9.9981 8.10597C9.699 8.10597 9.44707 8.06401 9.23939 7.97641C9.03104 7.88928 8.87009 7.75789 8.75541 7.58339C8.63961 7.40866 8.55812 7.19587 8.5089 6.94777C8.45947 6.69989 8.43599 6.32705 8.43599 5.83015L8.43667 4.32938ZM9.46445 6.58112C9.46445 6.90214 9.69967 7.16423 9.98614 7.16423C10.2728 7.16423 10.5071 6.90214 10.5071 6.58112V3.56351C10.5071 3.24295 10.2728 2.98086 9.98614 2.98086C9.69967 2.98086 9.46445 3.24295 9.46445 3.56351V6.58112ZM5.83278 8.10482H7.07073L7.07208 3.75727L8.53486 0.0329576H7.18089L6.40322 2.79925L5.61449 0.0253906H4.27451L5.83075 3.75933L5.83278 8.10482Z" fill="#171B31"/></g>
    </symbol></svg>