<svg width="40" height="42" viewBox="0 0 40 42" fill="none" xmlns="http://www.w3.org/2000/svg"><path d="M8.48323 9.66714C11.0377 9.66714 13.1085 7.59631 13.1085 5.04182C13.1085 2.48733 11.0377 0.416504 8.48323 0.416504C5.92873 0.416504 3.85791 2.48733 3.85791 5.04182C3.85791 7.59631 5.92873 9.66714 8.48323 9.66714Z" fill="#E5E6ED"/><path d="M19.8792 9.66753C22.434 9.66753 24.505 7.59651 24.505 5.04177C24.505 2.48704 22.434 0.416016 19.8792 0.416016C17.3245 0.416016 15.2535 2.48704 15.2535 5.04177C15.2535 7.59651 17.3245 9.66753 19.8792 9.66753Z" fill="#E5E6ED"/><path d="M31.2177 9.66753C33.7724 9.66753 35.8435 7.59651 35.8435 5.04177C35.8435 2.48704 33.7724 0.416016 31.2177 0.416016C28.663 0.416016 26.5919 2.48704 26.5919 5.04177C26.5919 7.59651 28.663 9.66753 31.2177 9.66753Z" fill="#E5E6ED"/><path d="M26.5051 11.3375H13.3146C12.1874 11.3375 11.2738 12.2512 11.2738 13.3775V25.0393C11.2738 26.167 12.1874 27.0793 13.3146 27.0793H13.9424V41.5015H25.6367V27.0793H26.5051C27.6323 27.0793 28.545 26.1665 28.545 25.0393V13.3775C28.5446 12.2516 27.6323 11.3375 26.5051 11.3375Z" fill="#E5E6ED"/><path d="M8.39637 25.0397V13.3778C8.39637 12.6485 8.56607 11.9617 8.85186 11.3379H2.03994C0.913632 11.3379 0 12.2515 0 13.3778V25.0397C0 26.1673 0.913632 27.0796 2.03994 27.0796H2.66823V41.5019H11.0642V29.4129C9.48103 28.5959 8.39637 26.9418 8.39637 25.0397Z" fill="#E5E6ED"/><path d="M37.9596 11.3375H30.9683C31.254 11.9614 31.4242 12.6486 31.4242 13.3775V25.0393C31.4242 27.0367 30.2279 28.7577 28.5149 29.5277V41.5015H37.0921V27.0793H37.9592C39.0859 27.0793 40 26.1665 40 25.0393V13.3775C40.0005 12.2516 39.0859 11.3375 37.9596 11.3375Z" fill="#E5E6ED"/></svg>