<svg width="34" height="45" viewBox="0 0 34 45" fill="none" xmlns="http://www.w3.org/2000/svg"><path d="M13.5125 4.29581C14.0496 4.45055 14.623 6.05257 16.6119 5.93424C18.5234 5.82046 18.7236 4.35953 19.3153 4.19113C20.6169 3.78608 22.4693 5.25611 23.3522 6.08898C23.4842 4.63715 23.243 2.66648 21.8958 2.68014C21.2859 2.68014 20.8536 2.68014 20.7125 1.90643C20.353 -1.01543 10.3494 -1.16107 10.3676 5.64751C11.2215 4.83674 12.3367 4.3574 13.5125 4.29581Z" fill="#E5E6ED"/><path d="M22.2963 6.95823C21.5408 6.27555 20.5031 5.54281 19.8978 5.48364C18.2867 7.81385 14.9461 7.93673 12.9936 5.62473C12.1708 5.89595 11.4396 6.39076 10.8819 7.0538V8.5557C10.8984 9.67676 11.2471 10.7677 11.8839 11.6905C12.5208 12.6133 13.417 13.3264 14.4593 13.7396C15.5015 14.1528 16.643 14.2475 17.7391 14.0118C18.8352 13.776 19.8367 13.2203 20.6169 12.4151C22.3463 10.6811 22.2963 9.06088 22.2963 6.95823Z" fill="#E5E6ED"/><path d="M12.6022 14.2175C12.6022 14.6225 12.5658 15.3462 12.5476 15.7558C12.9273 16.5072 13.508 17.1385 14.2252 17.5796C14.9423 18.0206 15.7677 18.2541 16.6095 18.2541C17.4514 18.2541 18.2768 18.0206 18.9939 17.5796C19.711 17.1385 20.2917 16.5072 20.6715 15.7558C20.6715 15.3962 20.6305 14.6043 20.6214 14.1947C19.4464 15.0153 18.0486 15.4572 16.6154 15.4613C15.1822 15.4654 13.7819 15.0314 12.6022 14.2175Z" fill="#E5E6ED"/><path d="M33.2237 22.4915H31.8583V17.3623C31.8571 16.4806 31.5613 15.6247 31.0179 14.9304C30.4745 14.2361 29.7146 13.7432 28.8591 13.5302C28.7612 13.085 28.5103 12.6883 28.1501 12.4091C27.7899 12.1298 27.3432 11.9857 26.8877 12.0018C26.4322 12.018 25.9968 12.1933 25.6572 12.4974C25.3177 12.8014 25.0955 13.2149 25.0294 13.6659C24.9632 14.1168 25.0573 14.5767 25.2952 14.9654C25.5332 15.3542 25.8999 15.6472 26.3316 15.7934C26.7633 15.9397 27.2326 15.9299 27.6578 15.7659C28.083 15.6018 28.4373 15.2938 28.6588 14.8955C29.1861 15.0596 29.6472 15.3878 29.9747 15.8324C30.3022 16.277 30.479 16.8146 30.4793 17.3668V22.496H28.7817C28.7817 21.2354 28.8136 20.5709 27.5984 19.3603C26.2103 17.9721 23.5023 17.0847 21.7319 16.6569C21.2124 17.5556 20.4657 18.3018 19.5665 18.8206C18.6674 19.3394 17.6476 19.6125 16.6096 19.6125C15.5715 19.6125 14.5517 19.3394 13.6526 18.8206C12.7535 18.3018 12.0067 17.5556 11.4872 16.6569C9.66673 17.0801 6.99063 17.9904 5.62527 19.3557C4.4101 20.5709 4.42376 21.2399 4.44196 22.5051H0V25.2358H33.2237V22.4915ZM26.9658 14.5269C26.8541 14.5268 26.7448 14.4939 26.6517 14.4321C26.5586 14.3704 26.4857 14.2826 26.4422 14.1797C26.3986 14.0768 26.3864 13.9634 26.4069 13.8535C26.4274 13.7437 26.4798 13.6423 26.5575 13.5621C26.6353 13.4819 26.7349 13.4263 26.8441 13.4023C26.9532 13.3784 27.067 13.3871 27.1712 13.4274C27.2754 13.4676 27.3655 13.5377 27.4301 13.6288C27.4948 13.72 27.5311 13.8281 27.5347 13.9398C27.5371 14.016 27.5242 14.092 27.4967 14.1631C27.4692 14.2342 27.4277 14.2991 27.3747 14.3539C27.3216 14.4087 27.258 14.4522 27.1878 14.4819C27.1176 14.5116 27.0421 14.5269 26.9658 14.5269Z" fill="#E5E6ED"/><path d="M27.7623 33.8694H28.6133L32.9188 26.5875H27.7623V33.8694Z" fill="#E5E6ED"/><path d="M3.95952 33.8694H5.00629V26.5875H0.259399L3.95952 33.8694Z" fill="#E5E6ED"/><path d="M26.3969 26.5875H6.3717V44.2689H26.3969V26.5875Z" fill="#E5E6ED"/></svg>