<svg width="22" height="21" viewBox="0 0 22 21" fill="none" xmlns="http://www.w3.org/2000/svg"><g clip-path="url(#clip0)" fill="#171B31"><path d="M15.4098 0.171875H6.30664C3.21525 0.171875 0.700195 2.72675 0.700195 5.86694V15.1138C0.700195 18.2541 3.21525 20.8089 6.30664 20.8089H15.4098C18.5014 20.8089 21.0165 18.254 21.0165 15.1138V5.86694C21.0166 2.72675 18.5014 0.171875 15.4098 0.171875ZM19.2141 15.1138C19.2141 17.2445 17.5075 18.9779 15.4099 18.9779H6.30664C4.20918 18.978 2.50276 17.2445 2.50276 15.1138V5.86694C2.50276 3.73637 4.20918 2.00289 6.30664 2.00289H15.4098C17.5074 2.00289 19.2139 3.73637 19.2139 5.86694V15.1138H19.2141Z"/><path d="M10.8584 5.1731C7.97175 5.1731 5.62338 7.55854 5.62338 10.4907C5.62338 13.4228 7.97175 15.8081 10.8584 15.8081C13.745 15.8081 16.0934 13.4228 16.0934 10.4907C16.0934 7.55854 13.745 5.1731 10.8584 5.1731ZM10.8584 13.977C8.96581 13.977 7.42594 12.4131 7.42594 10.4906C7.42594 8.56804 8.96569 7.00399 10.8584 7.00399C12.7511 7.00399 14.2908 8.56804 14.2908 10.4906C14.2908 12.4131 12.7509 13.977 10.8584 13.977Z"/><path d="M16.3129 3.62036C15.9656 3.62036 15.6244 3.76318 15.3792 4.01342C15.1327 4.26244 14.991 4.60911 14.991 4.96311C14.991 5.316 15.1328 5.66255 15.3792 5.91279C15.6243 6.16181 15.9656 6.30585 16.3129 6.30585C16.6614 6.30585 17.0015 6.16181 17.2478 5.91279C17.4942 5.66255 17.6348 5.31588 17.6348 4.96311C17.6348 4.60911 17.4942 4.26244 17.2478 4.01342C17.0027 3.76318 16.6614 3.62036 16.3129 3.62036Z"/></g><defs><clipPath id="clip0"><path fill="#fff" transform="translate(.7 .172)" d="M0 0H20.316V20.637H0z"/></clipPath></defs></svg>