<svg width="44" height="44" viewBox="0 0 44 44" fill="none" xmlns="http://www.w3.org/2000/svg"><path d="M22 0C9.86024 0 0 9.86024 0 22C0 34.1398 9.86024 44 22 44C34.1398 44 44 34.1398 44 22C44 9.86024 34.1398 0 22 0ZM38.2747 11.6627L38.6458 11.3976C39.441 12.6169 40.0771 13.9422 40.6072 15.3205L39.3349 16.2747C38.8578 16.6458 38.1687 16.3277 38.1157 15.6916L37.9566 12.2988C37.9566 12.0337 38.0626 11.8217 38.2747 11.6627ZM9.43614 33.1325L8.32289 36.1542C6.36145 34.2458 4.8241 31.9663 3.76386 29.4217L6.89157 27.9904C7.42169 27.7783 8.00482 27.9904 8.16386 28.5205L9.48916 32.4964C9.48916 32.7084 9.48916 32.9735 9.43614 33.1325ZM30.747 28.5735L29.2626 31.7012C29.2096 31.8072 29.1036 31.9133 28.9976 32.0193L27.9374 32.7084C27.7783 32.8145 27.6193 33.0265 27.6193 33.2386L26.347 41.2434C25.7108 41.4024 25.0747 41.5084 24.4386 41.5614L22.5301 40.6072C22.3181 40.5012 22.159 40.2892 22.106 40.0241L20.9398 31.7012C20.9398 31.5422 20.8337 31.3831 20.7277 31.2241L17.547 28.2554C17.3349 28.0434 17.2289 27.6723 17.388 27.4072L18.5012 24.8627C18.6072 24.5976 18.5542 24.2795 18.3422 24.0145L13.7831 19.2434C13.7301 19.1374 13.6241 19.0843 13.6241 18.9783L11.5566 12.6169C11.4506 12.2988 11.1855 12.0867 10.8675 12.0867L8.11084 11.9277C7.68675 11.9277 7.42169 11.5566 7.42169 11.1855C7.42169 11.0265 7.4747 10.8145 7.63373 10.7084L10.9205 6.94458C11.0795 6.78554 11.3446 6.67952 11.5566 6.67952L15.7976 7.10361C15.9036 7.10361 15.9566 7.10361 16.0627 7.10361L24.6506 5.14217C25.1807 5.03615 25.6578 5.46024 25.5518 5.99036L25.4458 6.62651C25.4458 6.78554 25.3398 6.94458 25.2337 7.0506L24.4386 7.84578C24.1205 8.16386 24.1205 8.64096 24.4386 8.90602L26.612 11.0795C26.9301 11.3976 26.9301 11.8747 26.612 12.1398L20.4096 18.4482C20.2506 18.6072 20.1976 18.7663 20.1976 18.9783V22.3181C20.1976 22.6892 20.4627 23.0072 20.8337 23.0602L27.7253 24.3855C27.8843 24.4386 28.0434 24.4916 28.1494 24.6506L30.694 27.8313C30.8 28.0434 30.853 28.3614 30.747 28.5735ZM34.4048 7.52771C34.4048 7.8988 34.1928 8.26988 33.8747 8.42892L29.6867 10.8145C29.1566 11.1325 28.4145 10.8675 28.2024 10.2843L27.6723 8.90602C27.4602 8.42892 27.5133 7.84578 27.7783 7.42169L28.8386 5.46024C28.9976 5.14217 29.3687 4.93012 29.7398 4.93012H31.7542C32.6554 5.46024 33.5566 6.04337 34.3518 6.73253V7.52771H34.4048ZM39.9181 29.4747L34.9349 26.241C34.6169 26.0289 34.5108 25.6578 34.6169 25.3398L36.3133 20.6217C36.3663 20.4627 36.4723 20.3566 36.6313 20.2506L41.1373 17.2289C41.5084 18.7663 41.7205 20.3566 41.7205 21.947C41.7205 24.7036 41.1373 27.3012 40.1301 29.6867C40.0771 29.6337 40.0241 29.5277 39.9181 29.4747Z" fill="#E5E6ED"/></svg>