<svg width="51" height="49" viewBox="0 0 51 49" fill="none" xmlns="http://www.w3.org/2000/svg"><path d="M37.7563 18.7737C38.4313 17.6237 38.4625 16.1924 37.8813 15.0049C37.2625 13.8174 36.1813 13.0424 34.9125 12.8299C33.6375 12.6362 32.35 13.0612 31.4313 13.9612C31.0063 14.3862 30.6688 14.9174 30.475 15.4987L27.025 12.0487L30.95 8.12368C31.3188 7.75493 31.4625 7.20493 31.3063 6.71118C31.15 6.21743 30.7063 5.84243 30.175 5.77368C29.7 5.70493 29.275 5.47368 28.9188 5.13618C28.425 4.64243 28.1938 3.91743 28.3 3.21118C28.425 2.48618 28.85 1.88618 29.5375 1.52993C30.175 1.19243 30.9688 1.22993 31.6063 1.57993C32.225 1.94868 32.6125 2.53618 32.7375 3.20493C32.8063 3.73618 33.1813 4.17993 33.675 4.33618C34.1688 4.49243 34.7 4.37368 35.0688 3.99868L39.0125 0.0549316L51 12.0549L39.0125 24.0424L35.5625 20.5924C36.4875 20.2799 37.2625 19.6424 37.7563 18.7737Z" fill="#E5E6ED"/><path d="M21.9188 43.9862C22.2188 43.9674 22.5375 43.9362 22.8375 43.8612C24.1125 43.5049 25.1563 42.5362 25.575 41.2799C25.9813 40.0049 25.7688 38.6987 25.0063 37.6362C24.1563 36.4862 22.6875 35.8862 21.2938 36.0299C20.85 36.0487 20.4125 36.1362 19.9875 36.3112V31.5237H25.5375C26.0688 31.5237 26.5438 31.2425 26.775 30.78C27.025 30.305 26.9688 29.7362 26.6688 29.3112C26.3688 28.9237 26.2063 28.4612 26.2063 27.9675C26.2063 27.2612 26.5625 26.5862 27.125 26.1612C27.725 25.7362 28.4688 25.6112 29.1938 25.8612C29.8813 26.0737 30.4313 26.655 30.6063 27.3487C30.8 28.055 30.6563 28.7425 30.25 29.3112C29.95 29.7362 29.8938 30.2987 30.125 30.78C30.375 31.2425 30.8313 31.5237 31.3625 31.5237H36.9313V48.4799H19.975V43.7049C20.5875 43.9549 21.2438 44.055 21.9188 43.9862Z" fill="#E5E6ED" stroke="#0C082B"/><path d="M5.60002 34.3674C5.95627 35.6612 6.94377 36.6987 8.18127 37.0924C8.20002 37.1112 8.20002 37.1112 8.21877 37.1112C8.21877 37.1112 8.23752 37.1112 8.25627 37.1299C8.51877 37.1987 8.76877 37.2549 9.03127 37.2737C9.11877 37.2924 9.20627 37.2924 9.31252 37.2924C9.36252 37.3112 9.41877 37.3112 9.48752 37.3112C9.53752 37.3112 9.59377 37.2924 9.64377 37.2924C9.96252 37.2737 10.2625 37.2237 10.5625 37.1487C10.6313 37.1112 10.7188 37.0987 10.7938 37.0799C11.1625 36.9549 11.5188 36.7987 11.8375 36.5487C12.8813 35.7862 13.5 34.5799 13.5 33.2924C13.5 32.6924 13.3563 32.0924 13.0938 31.5237H17.9563V37.0924C17.9563 37.6237 18.2563 38.0799 18.7188 38.3299C19.0188 38.4737 19.3375 38.5049 19.6563 38.4362C19.9375 38.4174 20.225 38.3487 20.45 38.1737C20.8563 37.8924 21.3688 37.7862 21.8813 37.8174C22.45 37.9237 22.975 38.2049 23.3125 38.6862C23.7375 39.2674 23.8625 40.0299 23.6313 40.7549C23.4188 41.4237 22.8375 41.9924 22.1313 42.1674C22.0063 42.2049 21.8688 42.2174 21.7438 42.2174C21.2688 42.2174 20.825 42.0924 20.4375 41.8112C20.2063 41.6362 19.9063 41.5612 19.6063 41.5612C19.3063 41.5112 18.9875 41.5424 18.725 41.6862C18.2625 41.9174 17.9625 42.3924 17.9625 42.9049V48.4737H1.02502V31.5237H5.88752C5.45627 32.4049 5.35002 33.3799 5.60002 34.3674Z" fill="#E5E6ED" stroke="#0C082B"/><path d="M17.9563 17.68C17.075 17.255 16.0813 17.1675 15.1125 17.4175C13.8188 17.7737 12.7813 18.7612 12.375 19.9987C11.9688 21.2737 12.1813 22.5987 12.9438 23.6425C14.0563 25.18 16.25 25.73 17.9625 24.88V29.7612H12.3938C11.8813 29.7612 11.4063 30.0425 11.1563 30.5237C10.925 30.9862 10.9625 31.5487 11.2813 31.9737C11.5813 32.38 11.725 32.8425 11.725 33.3175C11.725 34.0237 11.3875 34.6987 10.8063 35.1237C10.225 35.5487 9.46253 35.6737 8.75628 35.4425C8.08753 35.2112 7.53753 34.63 7.34378 33.9237C7.16878 33.255 7.29378 32.5425 7.68128 31.9987C7.70003 31.98 7.70003 31.9487 7.71878 31.93C7.80628 31.7862 7.87502 31.6487 7.91252 31.4862C7.93127 31.4362 7.95003 31.3612 7.95003 31.3112C7.96878 31.1362 7.95002 30.9737 7.91252 30.7987C7.89377 30.7612 7.91253 30.7487 7.89377 30.7112C7.89377 30.6737 7.85627 30.6612 7.84377 30.6237C7.82502 30.5862 7.82503 30.555 7.80628 30.5175C7.75628 30.3925 7.66252 30.2862 7.57502 30.1987C7.53752 30.1612 7.52502 30.1487 7.48752 30.13C7.34377 30.005 7.18752 29.8987 6.99377 29.8487C6.94377 29.83 6.90628 29.83 6.85003 29.8112C6.78128 29.7925 6.72503 29.7737 6.65628 29.7737H1.00003V12.7987H17.9563V17.68Z" fill="#E5E6ED" stroke="#0C082B"/></svg>