<svg width="27" height="14" viewBox="0 0 27 14" fill="none" xmlns="http://www.w3.org/2000/svg"><path fill-rule="evenodd" clip-rule="evenodd" d="M13.0548 13.3494H14.6345C14.6345 13.3494 15.1117 13.3028 15.3558 13.0693C15.58 12.8548 15.5728 12.4523 15.5728 12.4523C15.5728 12.4523 15.5421 10.5679 16.5257 10.2901C17.4956 10.0168 18.7412 12.1115 20.0611 12.9173C21.0594 13.5269 21.818 13.3934 21.818 13.3934L25.348 13.3494C25.348 13.3494 27.1944 13.2482 26.3187 11.9577C26.2471 11.852 25.8089 11.0029 23.6942 9.25766C21.4806 7.43149 21.7774 7.72678 24.4434 4.56745C26.0671 2.64344 26.7162 1.46888 26.5134 0.966079C26.3202 0.486792 25.1257 0.613258 25.1257 0.613258L21.1514 0.635163C21.1514 0.635163 20.8567 0.599531 20.6383 0.715629C20.4246 0.829536 20.2876 1.09488 20.2876 1.09488C20.2876 1.09488 19.6583 2.58356 18.8197 3.84969C17.0498 6.5214 16.3422 6.66291 16.0529 6.49672C15.3798 6.10988 15.5481 4.94364 15.5481 4.11489C15.5481 1.52525 15.9898 0.445902 14.6877 0.166536C14.2559 0.0738041 13.9377 0.0126154 12.8326 0.0023929C11.4147 -0.0101661 10.2144 0.00633585 9.53488 0.302495C9.08267 0.499351 8.73378 0.937894 8.94633 0.963304C9.20915 0.994118 9.80378 1.10569 10.1193 1.48728C10.5267 1.97986 10.5124 3.08636 10.5124 3.08636C10.5124 3.08636 10.7465 6.13412 9.9659 6.51279C9.43025 6.77229 8.69534 6.24218 7.11745 3.81815C6.30929 2.57656 5.69873 1.20426 5.69873 1.20426C5.69873 1.20426 5.58112 0.947679 5.37119 0.810552C5.11659 0.644071 4.76064 0.591353 4.76064 0.591353L0.983785 0.613258C0.983785 0.613258 0.41692 0.627277 0.208802 0.846768C0.0235153 1.04173 0.194018 1.44464 0.194018 1.44464C0.194018 1.44464 3.15055 7.59491 6.49868 10.6941C9.56905 13.5359 13.0548 13.3494 13.0548 13.3494Z" fill="#171B31"/></svg>