<svg width="21" height="21" viewBox="0 0 21 21" fill="none" xmlns="http://www.w3.org/2000/svg"><g clip-path="url(#clip0)"><path d="M16.049 15.1208H14.9341L14.9393 14.4629C14.9393 14.1705 15.1756 13.9314 15.4643 13.9314H15.5355C15.8249 13.9314 16.0619 14.1705 16.0619 14.4629L16.049 15.1208ZM11.867 13.711C11.5841 13.711 11.3528 13.9041 11.3528 14.1405V17.3399C11.3528 17.5759 11.5841 17.7685 11.867 17.7685C12.151 17.7685 12.3826 17.5759 12.3826 17.3399V14.1405C12.3826 13.9039 12.151 13.711 11.867 13.711ZM18.6588 11.9213V18.0079C18.6588 19.4679 17.4125 20.6625 15.889 20.6625H4.49844C2.97448 20.6625 1.72841 19.4679 1.72841 18.0079V11.9213C1.72841 10.4614 2.97448 9.26646 4.49844 9.26646H15.889C17.4125 9.26646 18.6588 10.4614 18.6588 11.9213ZM5.25828 18.6687L5.25737 12.2572L6.66936 12.2577V11.3077L2.90541 11.302V12.2359L4.08037 12.2394V18.6687H5.25828ZM9.49087 13.2123H8.31364V16.636C8.31364 17.1313 8.34321 17.3789 8.31184 17.4663C8.21612 17.7318 7.78587 18.0139 7.61814 17.4949C7.5897 17.4041 7.61476 17.1301 7.61431 16.6596L7.60956 13.2123H6.43889L6.4425 16.6055C6.4434 17.1255 6.43098 17.5133 6.44656 17.6898C6.47523 18.001 6.46507 18.3638 6.74928 18.5711C7.27886 18.9586 8.294 18.5133 8.54796 17.9593L8.5457 18.6662L9.49109 18.6674L9.49087 13.2123ZM13.2569 17.1329L13.2544 14.2833C13.2535 13.1974 12.4537 12.5471 11.3681 13.4258L11.3728 11.3072L10.197 11.3091L10.1913 18.6215L11.1584 18.6073L11.2464 18.1519C12.4819 19.3032 13.2587 18.5142 13.2569 17.1329ZM16.9411 16.7552L16.0585 16.76C16.058 16.7956 16.0567 16.8366 16.0562 16.8813V17.3817C16.0562 17.6495 15.8384 17.8676 15.5738 17.8676H15.4009C15.1359 17.8676 14.9181 17.6495 14.9181 17.3817V17.3262V16.7759V16.0657H16.9393V15.293C16.9393 14.7282 16.9251 14.1637 16.879 13.8408C16.7344 12.8195 15.323 12.6574 14.6102 13.1802C14.3864 13.3434 14.2156 13.562 14.1162 13.8555C14.016 14.1492 13.9661 14.5505 13.9661 15.0602V16.7593C13.9666 19.5839 17.3441 19.1847 16.9411 16.7552ZM12.4133 7.53088C12.474 7.68085 12.5684 7.80238 12.6963 7.8941C12.8228 7.98444 12.9844 8.02984 13.1781 8.02984C13.3478 8.02984 13.4982 7.98329 13.6291 7.88722C13.7596 7.7916 13.8695 7.64874 13.9594 7.45819L13.937 7.92734H15.2492V2.25879H14.2162V6.67054C14.2162 6.90948 14.0226 7.10507 13.7858 7.10507C13.5503 7.10507 13.356 6.90948 13.356 6.67054V2.25879H12.2778V6.08216C12.2778 6.56919 12.2866 6.89388 12.3009 7.05852C12.3155 7.22201 12.3525 7.37886 12.4133 7.53088ZM8.43667 4.32938C8.43667 3.78524 8.48136 3.36035 8.57008 3.054C8.65947 2.7488 8.81997 2.50345 9.05248 2.3184C9.28432 2.13244 9.58116 2.03934 9.94212 2.03934C10.2457 2.03934 10.5058 2.09988 10.7229 2.21843C10.9412 2.33767 11.1096 2.49244 11.2263 2.68345C11.3453 2.87515 11.4261 3.07212 11.4692 3.27367C11.5133 3.47798 11.5349 3.78616 11.5349 4.20189V5.63548C11.5349 6.16127 11.5142 6.5481 11.4738 6.79368C11.4338 7.03995 11.348 7.26833 11.2151 7.4825C11.0841 7.69437 10.915 7.85282 10.7101 7.95394C10.5028 8.05598 10.2658 8.10597 9.9981 8.10597C9.699 8.10597 9.44707 8.06401 9.23939 7.97641C9.03104 7.88928 8.87009 7.75789 8.75541 7.58339C8.63961 7.40866 8.55812 7.19587 8.5089 6.94777C8.45947 6.69989 8.43599 6.32705 8.43599 5.83015L8.43667 4.32938ZM9.46445 6.58112C9.46445 6.90214 9.69967 7.16423 9.98614 7.16423C10.2728 7.16423 10.5071 6.90214 10.5071 6.58112V3.56351C10.5071 3.24295 10.2728 2.98086 9.98614 2.98086C9.69967 2.98086 9.46445 3.24295 9.46445 3.56351V6.58112ZM5.83278 8.10482H7.07073L7.07208 3.75727L8.53486 0.0329576H7.18089L6.40322 2.79925L5.61449 0.0253906H4.27451L5.83075 3.75933L5.83278 8.10482Z" fill="#171B31"/></g><defs><clipPath id="clip0"><path fill="#fff" transform="translate(.035 .025)" d="M0 0H20.316V20.637H0z"/></clipPath></defs></svg>