<svg width="84" height="30" viewBox="0 0 84 30" fill="none" xmlns="http://www.w3.org/2000/svg"><path fill-rule="evenodd" clip-rule="evenodd" d="M47.1538 4.24678H48.2086L47.8009 2.87514H47.5616L47.1538 4.24678ZM48.426 4.96576H46.9473L46.632 6.03321H45.8328L47.067 2.08423H48.3227L49.5624 6.03321H48.7413L48.426 4.96576Z" fill="#fff"/><path fill-rule="evenodd" clip-rule="evenodd" d="M50.9364 2.81982V6.03321H50.111V2.08423H52.9631V2.81982H50.9364Z" fill="#fff"/><path fill-rule="evenodd" clip-rule="evenodd" d="M56.5836 5.29762V6.03321H53.6218V2.08423H56.523V2.81982H54.4405V3.64944H56.0615V4.36846H54.4405V5.29762H56.5836Z" fill="#fff"/><path fill-rule="evenodd" clip-rule="evenodd" d="M60.7509 2.08423V6.03321H59.9255V4.3795H58.1755V6.03321H57.3504V2.08423H58.1755V3.6218H59.9255V2.08423H60.7509Z" fill="#fff"/><path fill-rule="evenodd" clip-rule="evenodd" d="M64.4809 2.80878H63.2489V6.03321H62.4221V2.80878H61.1901V2.08423H64.4809V2.80878Z" fill="#fff"/><path fill-rule="evenodd" clip-rule="evenodd" d="M68.32 4.82109C68.1993 5.59992 67.6014 6.14291 66.6855 6.14291C65.49 6.14291 64.8098 5.30922 64.8098 4.11355C64.8098 2.91789 65.4953 2.08423 66.6855 2.08423C67.5575 2.08423 68.1444 2.57784 68.2817 3.29636H67.4259C67.3326 2.98373 67.075 2.81369 66.6855 2.81369C65.9834 2.81369 65.6491 3.38409 65.6491 4.11355C65.6491 4.83756 65.9834 5.41345 66.6855 5.41345C67.1077 5.41345 67.3931 5.19404 67.4698 4.82109H68.32Z" fill="#fff"/><path fill-rule="evenodd" clip-rule="evenodd" d="M71.9403 2.80878H70.7084V6.03321H69.8814V2.80878H68.6495V2.08423H71.9403V2.80878Z" fill="#fff"/><path fill-rule="evenodd" clip-rule="evenodd" d="M74.926 4.84408C74.926 4.51225 74.7195 4.34078 74.2957 4.34078H73.3194V5.3308H74.2843C74.6973 5.3308 74.926 5.17594 74.926 4.84408ZM74.8143 3.20697C74.8143 2.91385 74.6247 2.77006 74.251 2.77006H73.3194V3.64944H74.2564C74.6304 3.64944 74.8143 3.50565 74.8143 3.20697ZM75.7792 4.88833C75.7792 5.54649 75.3498 6.03321 74.4071 6.03321H72.4884V2.08423H74.357C75.2384 2.08423 75.6679 2.56542 75.6679 3.12957C75.6679 3.48905 75.5061 3.79877 75.2495 3.92599V4.0366C75.534 4.15274 75.7792 4.49567 75.7792 4.88833Z" fill="#fff"/><path fill-rule="evenodd" clip-rule="evenodd" d="M79.3233 4.11355C79.3233 3.38961 78.9868 2.81369 78.2478 2.81369C77.5141 2.81369 77.1722 3.38961 77.1722 4.11355C77.1722 4.83756 77.5141 5.41345 78.2478 5.41345C78.9868 5.41345 79.3233 4.83756 79.3233 4.11355ZM80.1674 4.11355C80.1674 5.26536 79.4943 6.14291 78.2478 6.14291C77.0009 6.14291 76.3281 5.26536 76.3281 4.11355C76.3281 2.96177 77.0009 2.08423 78.2478 2.08423C79.4943 2.08423 80.1674 2.96177 80.1674 4.11355Z" fill="#fff"/><path fill-rule="evenodd" clip-rule="evenodd" d="M46.9202 9.32397V12.0838H47.0295L48.4979 9.32397H49.5622V13.273H48.798V10.4523H48.6888L47.1878 13.273H46.1617V9.32397H46.9202Z" fill="#fff"/><path fill-rule="evenodd" clip-rule="evenodd" d="M53.95 9.32397V13.273H53.1249V11.6192H51.3749V13.273H50.5495V9.32397H51.3749V10.8615H53.1249V9.32397H53.95Z" fill="#fff"/><path fill-rule="evenodd" clip-rule="evenodd" d="M58.2282 9.32397V13.273H57.403V11.6192H55.6528V13.273H54.8276V9.32397H55.6528V10.8615H57.403V9.32397H58.2282Z" fill="#fff"/><path fill-rule="evenodd" clip-rule="evenodd" d="M61.8818 11.3533C61.8818 10.6294 61.5452 10.0534 60.8062 10.0534C60.0726 10.0534 59.7307 10.6294 59.7307 11.3533C59.7307 12.0773 60.0726 12.6532 60.8062 12.6532C61.5452 12.6532 61.8818 12.0773 61.8818 11.3533ZM62.7259 11.3533C62.7259 12.5051 62.0528 13.3827 60.8062 13.3827C59.5594 13.3827 58.8866 12.5051 58.8866 11.3533C58.8866 10.2015 59.5594 9.32397 60.8062 9.32397C62.0528 9.32397 62.7259 10.2015 62.7259 11.3533Z" fill="#fff"/><path fill-rule="evenodd" clip-rule="evenodd" d="M65.9312 12.0838C65.9312 11.752 65.7247 11.5805 65.3009 11.5805H64.3246V12.5705H65.2895C65.7025 12.5705 65.9312 12.4157 65.9312 12.0838ZM65.8195 10.4467C65.8195 10.1536 65.6298 10.0098 65.2562 10.0098H64.3246V10.8892H65.2616C65.6356 10.8892 65.8195 10.7454 65.8195 10.4467ZM66.7844 12.1281C66.7844 12.7862 66.3549 13.273 65.4123 13.273H63.4936V9.32397H65.3621C66.2436 9.32397 66.6731 9.80516 66.6731 10.3693C66.6731 10.7288 66.5113 11.0385 66.2547 11.1657V11.2763C66.5392 11.3925 66.7844 11.7354 66.7844 12.1281Z" fill="#fff"/><path fill-rule="evenodd" clip-rule="evenodd" d="M68.4351 11.4865H69.4899L69.0821 10.1149H68.8428L68.4351 11.4865ZM69.7072 12.2055H68.2286L67.9132 13.273H67.1141L68.3482 9.32397H69.604L70.8437 13.273H70.0226L69.7072 12.2055Z" fill="#fff"/><path fill-rule="evenodd" clip-rule="evenodd" d="M74.44 13.2885H71.3915V9.32397H72.204V12.55H73.8619V9.32397H74.6744V12.55H75.2308V14.2602H74.44V13.2885Z" fill="#fff"/><path fill-rule="evenodd" clip-rule="evenodd" d="M76.6482 9.32397V12.0838H76.7575L78.2256 9.32397H79.2902V13.273H78.5257V10.4523H78.4168L76.9158 13.273H75.8896V9.32397H76.6482Z" fill="#fff"/><path fill-rule="evenodd" clip-rule="evenodd" d="M83.0058 8.33643C82.9621 8.85515 82.5912 9.17733 81.9741 9.17733C81.3574 9.17733 80.9862 8.85515 80.9427 8.33643H81.543C81.5647 8.52208 81.7069 8.67494 81.9741 8.67494C82.2361 8.67494 82.3782 8.52751 82.4056 8.33643H83.0058ZM81.0356 9.37388V12.0986H81.1445L82.6129 9.37388H83.6772V13.2727H82.913V10.4878H82.8038L81.3028 13.2727H80.2767V9.37388H81.0356Z" fill="#fff"/><path fill-rule="evenodd" clip-rule="evenodd" d="M46.9867 17.4089V20.6223H46.1617V16.6733H49.0137V17.4089H46.9867Z" fill="#fff"/><path fill-rule="evenodd" clip-rule="evenodd" d="M52.3381 18.5933C52.3381 17.8693 52.0015 17.2934 51.2625 17.2934C50.5289 17.2934 50.187 17.8693 50.187 18.5933C50.187 19.3173 50.5289 19.8932 51.2625 19.8932C52.0015 19.8932 52.3381 19.3173 52.3381 18.5933ZM53.1822 18.5933C53.1822 19.7451 52.5091 20.6226 51.2625 20.6226C50.0157 20.6226 49.3429 19.7451 49.3429 18.5933C49.3429 17.4415 50.0157 16.564 51.2625 16.564C52.5091 16.564 53.1822 17.4415 53.1822 18.5933Z" fill="#fff"/><path fill-rule="evenodd" clip-rule="evenodd" d="M56.2983 17.9399C56.2983 17.5914 56.1134 17.3979 55.6122 17.3979H54.7622V18.4819H55.6122C56.1134 18.4819 56.2983 18.2828 56.2983 17.9399ZM57.1318 17.9288C57.1318 18.7253 56.6142 19.2065 55.7265 19.2065H54.7622V20.6223H53.9507V16.6733H55.7265C56.6142 16.6733 57.1318 17.1435 57.1318 17.9288Z" fill="#fff"/><path fill-rule="evenodd" clip-rule="evenodd" d="M60.6753 18.5933C60.6753 17.8693 60.3387 17.2934 59.5997 17.2934C58.866 17.2934 58.5241 17.8693 58.5241 18.5933C58.5241 19.3173 58.866 19.8932 59.5997 19.8932C60.3387 19.8932 60.6753 19.3173 60.6753 18.5933ZM61.5193 18.5933C61.5193 19.7451 60.8462 20.6226 59.5997 20.6226C58.3529 20.6226 57.6801 19.7451 57.6801 18.5933C57.6801 17.4415 58.3529 16.564 59.5997 16.564C60.8462 16.564 61.5193 17.4415 61.5193 18.5933Z" fill="#fff"/><path fill-rule="evenodd" clip-rule="evenodd" d="M64.6595 17.3025H63.479V17.6523C63.479 18.6517 63.3085 19.3625 63.0833 19.79H64.6595V17.3025ZM66.0162 19.79V21.5002H65.2198V20.5285H62.6442V21.5002H61.8478V19.79H62.2542C62.5177 19.3125 62.7211 18.5906 62.7211 17.4357V16.564H65.4559V19.79H66.0162Z" fill="#fff"/><path fill-rule="evenodd" clip-rule="evenodd" d="M67.5566 18.8359H68.6114L68.2036 17.4643H67.9644L67.5566 18.8359ZM68.8287 19.5549H67.3501L67.0348 20.6223H66.2356L67.4697 16.6733H68.7255L69.9652 20.6223H69.1441L68.8287 19.5549Z" fill="#fff"/><path fill-rule="evenodd" clip-rule="evenodd" d="M46.1617 23.9133H47.4502L48.0918 25.4896H48.2025L48.8441 23.9133H50.1107V27.8623H49.342V24.7816H49.2313L48.5123 26.5405H47.76L47.0411 24.7816H46.9303V27.8623H46.1617V23.9133Z" fill="#fff"/><path fill-rule="evenodd" clip-rule="evenodd" d="M53.7639 25.833C53.7639 25.1091 53.4274 24.5332 52.6884 24.5332C51.9547 24.5332 51.6125 25.1091 51.6125 25.833C51.6125 26.557 51.9547 27.133 52.6884 27.133C53.4274 27.133 53.7639 26.557 53.7639 25.833ZM54.608 25.833C54.608 26.9849 53.9349 27.8624 52.6884 27.8624C51.4416 27.8624 50.7687 26.9849 50.7687 25.833C50.7687 24.6813 51.4416 23.8037 52.6884 23.8037C53.9349 23.8037 54.608 24.6813 54.608 25.833Z" fill="#fff"/><path fill-rule="evenodd" clip-rule="evenodd" d="M58.6667 26.5406C58.546 27.3194 57.9481 27.8624 57.0321 27.8624C55.8367 27.8624 55.1565 27.0287 55.1565 25.833C55.1565 24.6374 55.842 23.8037 57.0321 23.8037C57.9042 23.8037 58.4911 24.2973 58.6283 25.0158H57.7725C57.6793 24.7032 57.4217 24.5332 57.0321 24.5332C56.3301 24.5332 55.9955 25.1036 55.9955 25.833C55.9955 26.557 56.3301 27.133 57.0321 27.133C57.4544 27.133 57.7398 26.9135 57.8165 26.5406H58.6667Z" fill="#fff"/><path fill-rule="evenodd" clip-rule="evenodd" d="M59.4347 23.9133H60.2628V25.4564H61.1793L61.9297 23.9133H62.7853L61.8741 25.8325L62.8352 27.8623H61.9796L61.185 26.2031H60.2628V27.8623H59.4347V23.9133Z" fill="#fff"/><path fill-rule="evenodd" clip-rule="evenodd" d="M65.8216 26.6732C65.8216 26.3414 65.6151 26.1699 65.1913 26.1699H64.215V27.1599H65.1799C65.5929 27.1599 65.8216 27.005 65.8216 26.6732ZM65.7099 25.0361C65.7099 24.743 65.5202 24.5991 65.1466 24.5991H64.215V25.4785H65.152C65.5259 25.4785 65.7099 25.3347 65.7099 25.0361ZM66.6748 26.7175C66.6748 27.3756 66.2453 27.8623 65.3026 27.8623H63.384V23.9133H65.2525C66.134 23.9133 66.5635 24.3945 66.5635 24.9587C66.5635 25.3182 66.4017 25.6279 66.1451 25.7551V25.8657C66.4296 25.9818 66.6748 26.3248 66.6748 26.7175Z" fill="#fff"/><path fill-rule="evenodd" clip-rule="evenodd" d="M70.8939 27.8623H71.7203V23.9133H70.8939V27.8623ZM69.6069 26.5571C69.6069 26.1865 69.4072 25.9763 68.858 25.9763H68.159V27.1378H68.858C69.4072 27.1378 69.6069 26.9331 69.6069 26.5571ZM67.3326 27.8623V23.9133H68.159V25.2518H68.9855C69.9119 25.2518 70.4557 25.744 70.4557 26.5515C70.4557 27.3701 69.9119 27.8623 68.9855 27.8623H67.3326Z" fill="#fff"/><path fill-rule="evenodd" clip-rule="evenodd" d="M8.05066 26.6155C7.84915 26.866 7.54029 26.9499 7.35844 26.8037C7.19802 26.6752 7.19341 26.4085 7.3329 26.176C7.21742 26.2054 7.11524 26.2686 7.04755 26.3666C6.87489 26.6155 6.97554 26.9865 7.27362 27.1949C7.57171 27.404 7.95436 27.3708 8.12727 27.1227C8.24835 26.9499 8.23355 26.7179 8.11403 26.5225C8.09563 26.5541 8.07469 26.5853 8.05066 26.6155ZM18.2629 8.95391C17.9036 8.60899 18.009 7.92899 18.009 7.92899C17.8576 8.05595 17.665 8.94444 17.985 9.39498C18.3554 9.91741 18.6882 9.98923 18.9818 10.5578C19.0175 10.4769 18.9715 10.2737 18.8954 10.1216C18.7802 9.89029 18.7352 9.69791 19.0073 9.61935C19.7767 9.39574 20.4916 10.5055 20.9113 10.4869C21.4991 10.4615 21.6311 9.93432 21.6557 9.90822C21.6807 9.88288 21.3468 10.1369 20.9675 10.0914C20.3685 10.0192 20.0914 9.34506 19.4173 9.20772C18.9874 9.12069 18.6229 9.29949 18.2629 8.95391ZM17.853 21.3227C17.6532 21.6155 17.8055 22.0288 18.3355 22.1843C18.8129 22.3233 19.1289 22.4689 19.3621 22.704C19.7054 23.0477 19.8655 23.0907 19.9483 23.0877L5.2889 2.73988L5.0945 2.8817C5.0945 2.8817 13.5537 14.6245 17.3163 19.8492C17.4568 20.0434 18.0295 21.0619 17.853 21.3227ZM17.7958 22.2496C17.2386 22.2634 16.5986 22.4627 15.9546 21.8662C15.1203 21.0935 14.2503 21.5872 14.2503 21.5872C14.2503 21.5872 14.7995 22.1361 14.4938 22.362C13.9954 22.7309 14.3625 23.163 14.3177 23.3322C14.2733 23.5005 13.7719 23.5351 12.9325 23.1514C12.4556 22.9315 12.0191 22.9389 11.7315 22.9847C11.5146 23.0213 11.5861 23.1783 11.6349 23.2233C11.6349 23.2233 11.9879 23.5471 12.1256 23.6368C12.236 23.7069 12.5177 23.9405 12.6229 23.8645C12.7251 23.7914 12.5021 23.3776 12.5021 23.3776C12.5021 23.3776 14.1558 23.9308 14.7339 23.9308C15.4062 23.9308 14.7763 22.811 15.3055 22.758C15.5722 22.7309 15.905 23.1474 16.4545 23.2259C16.8369 23.2817 17.206 23.1181 17.5817 23.0239C17.982 22.924 18.1337 23.4211 18.1899 23.8586C18.1996 23.9298 18.2139 24.1106 18.2905 24.2432C18.4226 23.6127 18.5988 22.2302 17.7958 22.2496ZM21.9826 23.5443C21.7645 22.9567 21.3484 23.2101 21.1624 23.145C20.9762 23.0804 20.7351 22.8473 20.6566 22.2234C20.579 21.598 20.049 21.9358 20.049 21.9358C20.049 21.9358 20.6617 23.1676 20.9093 23.824C21.1573 24.4791 21.3652 23.9712 21.6669 24.3309C21.9708 24.6904 21.9356 26.5378 21.764 27.1324C21.5343 27.9204 21.0753 28.4751 20.6071 28.8496C21.0339 28.7999 21.8293 27.9623 22.0529 27.4127C22.3098 26.7817 22.1627 26.2 22.1627 26.2L22.5216 26.1678L22.3027 25.595L22.6488 25.5428C22.6488 25.5428 22.1995 24.1308 21.9826 23.5443ZM7.7301 24.7134C7.29099 24.5931 6.81868 24.5709 6.35047 24.6331C5.86646 24.7052 5.47739 24.8429 5.07203 24.8218C4.66972 24.8123 4.29246 24.6536 4.04673 24.3626C3.93638 24.2345 3.85592 24.0845 3.79818 23.9249C3.99255 23.522 4.37035 23.1145 5.04445 22.7391C7.39931 21.4279 6.62074 19.949 6.47362 18.2364C6.39954 17.366 6.57577 16.5737 7.02204 16.1723C7.65242 15.6029 8.71199 15.6731 8.71199 15.6731C8.59091 15.5181 7.17148 15.009 6.08816 15.3247C4.92744 15.6626 4.71263 16.5039 4.51337 17.102C4.341 17.6204 4.11567 18.2313 3.08934 18.6621C1.36412 19.3869 1.48063 20.7459 1.48063 20.7459C1.48063 20.7459 0.855034 19.4035 2.53197 18.2686C4.66105 16.8282 3.84162 15.7215 4.55324 15.061C5.10933 14.5464 5.77448 14.6283 6.78958 14.9067C6.60694 14.6908 3.90953 13.5577 3.59639 15.9646C3.33047 18.0102 1.37895 17.7249 1.04102 19.6499C0.802959 21.0158 2.09342 22.1596 2.09342 22.1596C2.09342 22.1596 1.06246 20.092 3.09037 19.2557C4.4935 18.6787 5.29297 18.0115 5.50143 17.3535C5.48969 17.5638 5.4912 17.7876 5.49733 18.032C5.5198 18.9576 5.95944 19.6812 5.82405 20.9831C5.74894 21.6997 4.44239 22.4147 3.71233 23.1501C3.7379 22.8202 3.82628 22.4996 3.99105 22.2348C4.17544 21.9527 4.47713 21.6505 4.60842 21.3162C4.75913 20.9872 4.77957 20.6375 4.73103 20.3537C4.69116 20.123 4.60995 19.9406 4.52414 19.7857C4.49143 19.799 4.4608 19.8115 4.43013 19.8216C4.57775 20.1685 4.66002 20.6942 4.37492 21.2059C4.23321 21.4991 3.98235 21.7063 3.7149 22.0498C3.47124 22.3894 3.3029 22.8181 3.2809 23.2835C3.27429 23.4314 3.28859 23.5834 3.31413 23.7351C3.01629 24.5176 3.3555 25.5272 3.62806 25.9946C3.95375 26.5505 4.25975 26.9581 4.10087 27.6042C3.94045 28.2503 4.50164 28.0263 4.89887 28.033C5.02402 28.0345 5.15427 28.0355 5.27257 28.0355C5.5336 28.0345 5.64088 27.8451 5.48149 27.5884C5.20434 27.1447 4.7632 26.4889 4.41176 26.2085C4.0978 25.957 3.58615 25.2967 3.63316 24.5322C4.09627 25.0833 4.61661 25.2567 5.04749 25.2957C5.55304 25.3404 6.02991 25.1499 6.41895 25.0887C6.82688 25.0239 7.24449 25.0344 7.62382 25.1271C8.00162 25.2209 8.3444 25.3952 8.60881 25.626C8.87748 25.8569 9.02538 26.1624 9.10406 26.4574C9.24968 27.0388 8.85091 27.5837 8.52807 27.8702C8.5475 27.8917 8.57251 27.9132 8.59498 27.9331C9.15927 27.5935 9.46299 26.9998 9.35286 26.2914C9.24455 25.5953 8.61491 24.9276 7.7301 24.7134ZM7.26956 13.823C7.96203 14.5549 8.70586 14.261 9.03818 14.3006C9.37101 14.3395 9.75366 15.1929 9.55133 16.0196C9.34929 16.8461 9.26908 16.704 9.13166 17.2226C8.95848 17.876 9.7664 18.3447 9.57894 18.9469C9.52733 19.1152 9.41085 19.3554 9.55133 19.5426C9.76999 19.8364 10.1243 19.4499 10.5705 19.5147C10.9202 19.5655 11.229 19.4473 11.3808 19.3554C11.3277 19.1003 10.3197 19.257 10.0936 18.8439C9.99451 18.6615 9.73016 16.7816 10.3151 15.9415C10.8528 15.171 10.3539 14.9305 9.98584 14.3083C10.4898 14.0303 11.6748 13.441 11.6748 13.441C12.0625 13.889 12.3371 14.2751 12.5734 14.8148C12.6981 15.083 12.7839 15.3711 12.7742 15.6608C12.7823 15.9551 12.6725 16.2442 12.4868 16.507C12.7323 16.4691 12.9576 16.0286 13.0252 15.6898C13.0902 15.3493 13.0411 15 12.9489 14.676C12.6066 13.6277 11.8107 12.8772 11.8107 12.8772C11.8107 12.8772 10.7337 13.2471 9.73422 13.7903C9.41902 13.1985 9.10203 13.3034 8.70892 13.3369C8.31889 13.3705 8.08233 12.9579 8.08233 12.9579C8.38527 13.0542 8.80647 13.0708 9.37101 12.8478C10.6369 12.3471 10.156 11.3002 10.156 11.3002C10.156 11.3002 10.1825 12.0605 9.42515 12.1675C8.95441 12.2335 7.71936 11.927 7.71936 11.927C7.71936 11.927 8.70893 11.8118 8.91047 11.2411C9.1848 10.46 9.9705 10.7668 9.9705 10.7668C9.9705 10.7668 9.55133 10.273 8.90483 10.6598C8.5112 10.8974 7.85728 10.973 7.05521 10.567C6.25393 10.1607 5.96351 10.8341 5.80155 10.8507C5.63988 10.8692 5.5137 10.6038 5.60461 10.3275C5.69606 10.0504 6.61614 9.78917 8.00112 9.73583C8.91557 9.70076 9.36438 9.88085 9.5636 10.0079C9.56567 9.93228 9.31915 9.59322 8.56537 9.40778C7.81231 9.2218 7.86138 8.91323 7.89662 8.38105C7.93189 7.84871 7.15971 8.06209 6.97197 7.99479C6.78448 7.92771 6.9587 7.51047 6.9587 7.51047C6.68843 7.58802 6.48229 7.80703 6.49302 8.1325C6.49866 8.34969 6.70683 8.50621 6.91426 8.60849C7.12137 8.71138 7.15511 8.89815 6.78294 9.11508C6.48129 9.29105 6.04932 9.51874 5.47023 9.76744C4.18108 10.3206 5.79032 11.2739 5.22428 11.5654C4.65645 11.8571 4.518 12.2391 4.48633 12.4474C4.41582 12.9207 4.73153 13.2724 4.73153 13.2724C5.83936 12.6705 6.57783 13.0924 7.26956 13.823ZM13.8291 12.1321C13.8291 11.6586 13.9504 11.4304 14.0812 11.4245C14.4805 11.4076 14.5658 11.9744 14.5714 12.1276C14.5878 12.5788 14.2554 12.7943 14.2554 12.7943C14.5402 12.8186 14.765 12.4238 14.8026 12.1718C14.8567 11.8003 14.7901 11.6722 14.6593 11.4245C14.6593 11.4245 15.4945 12.233 15.4052 13.13C15.304 14.1463 14.1589 14.6796 14.1589 14.6796C14.4984 14.801 15.4797 14.7029 16.1068 13.9023C16.4535 13.4597 16.6052 12.7876 16.1847 11.7275C15.8039 10.7647 15.0774 9.94969 15.8499 8.10384C16.6021 6.30478 18.5938 6.06966 19.7915 6.9244C19.8691 6.97966 19.9141 7.04612 19.9407 7.11625C20.0188 7.32935 19.4592 7.60747 19.7038 7.73634C19.8727 7.82493 20.0934 7.84795 20.2837 7.99351C20.4584 8.12582 20.4937 8.2391 20.5821 8.32152C20.6485 8.38362 20.6783 8.39613 20.7437 8.39613C20.2017 7.76067 20.1123 7.03712 20.0239 6.27201C19.5986 6.16221 18.9235 5.81638 18.2568 5.73854C17.8392 5.68968 16.8272 5.62325 15.8126 6.12254C14.67 6.68467 13.4603 7.77808 13.4603 10.3129C13.4603 11.405 13.8291 12.1946 13.8291 12.1321ZM1.10743 18.0335C1.69594 17.8732 1.69594 17.4362 1.70411 17.3453C1.79812 17.4701 1.83082 17.6076 1.83389 17.7851C2.09389 17.4462 2.03108 16.8582 1.39425 16.5067C1.39425 16.5067 1.43056 17.2788 0.936309 17.5515C0.422094 17.834 0.341352 18.0154 0.312779 18.2948C0.300511 18.4318 0.327582 18.5741 0.401157 18.6843C0.467566 18.7952 0.581481 18.8729 0.687761 18.8992C0.532442 18.691 0.502304 18.1982 1.10743 18.0335ZM13.4281 7.24016C11.9844 7.3227 11.4804 6.80457 10.4934 6.32859C9.50383 5.85144 8.65375 6.2001 8.50457 6.42471C8.96461 6.45312 9.48646 6.63603 10.4765 7.25844C12.4756 8.51543 13.4281 7.24016 13.4281 7.24016ZM12.7808 4.17338C12.5714 4.22892 12.0636 4.31147 12.3003 5.48476C12.5387 6.65855 13.1709 6.37403 13.3415 6.22362C13.3415 6.22362 12.4817 6.13405 12.4567 5.11691C12.4321 4.09811 13.6064 4.2855 13.6064 4.2855C13.5359 4.20691 13.1131 4.08482 12.7808 4.17338ZM25.644 19.0888C25.3594 18.076 24.4537 16.0122 23.834 15.0702C23.2115 14.1274 22.8925 14.8033 22.6452 15.0164C22.3967 15.2295 21.6679 16.4563 21.3489 14.8747C21.0288 13.2924 19.3974 11.9221 19.3974 11.9221C19.734 13.1133 19.6446 13.9852 19.5562 14.7506C19.4689 15.5138 19.663 15.7814 19.663 16.2427C19.663 16.7057 18.2803 17.0081 18.2073 17.3632C18.1368 17.7188 20.2663 19.1787 22.2935 17.7152C22.9032 17.2752 23.2825 18.9822 23.4774 19.4442C23.6736 19.9073 23.2825 20.0492 23.7436 20.5829C24.2057 21.116 23.8504 21.5653 23.8504 21.8987C23.8504 22.2104 24.7656 22.9934 24.9331 22.8228C25.2282 22.5288 24.5604 20.7779 24.2943 20.1741C24.0274 19.569 23.6021 17.613 23.3014 17.0795C23.1282 16.7746 22.2378 16.991 22.2378 16.991L22.175 16.7541C22.175 16.7541 22.2986 16.5957 22.413 16.4755C23.3372 15.5148 23.2656 15.9057 24.2235 17.0795C25.1809 18.2525 24.0274 18.7156 24.8611 19.3203C25.6958 19.9245 25.9268 20.1027 25.644 19.0888ZM10.4489 3.35552C10.4489 3.35552 10.6267 3.41605 10.9662 3.4232C11.3067 3.42988 11.4753 3.11425 11.4753 3.11425C10.6466 3.03158 10.405 2.7386 10.405 2.7386C10.405 2.7386 11.1943 2.69855 11.5938 2.64508C11.993 2.59104 12.721 2.39584 12.721 2.39584C12.721 2.39584 12.6935 3.04924 12.6878 3.4291C12.6843 3.80861 13.1714 3.72566 13.3338 3.67397C13.5384 3.60934 13.5706 2.85225 13.6043 2.20475C13.6299 1.71532 13.2674 1.71149 13.0605 1.79789C12.7558 1.92563 12.1762 2.22319 11.5504 2.41504C10.9238 2.60587 9.94343 2.46703 9.94343 2.46703L9.88979 2.67089L10.7148 3.17864L10.4489 3.35552ZM11.8061 6.45977L12.0293 6.36381C12.0293 6.36381 11.8582 5.86245 11.8459 5.41912C11.8357 4.97406 12.0181 3.98995 12.0181 3.98995H11.8061C11.8061 3.98995 11.7095 4.71322 11.5841 5.34563C11.4605 5.97855 11.1287 5.85477 10.9662 5.84247C10.8042 5.82996 9.5161 5.64527 9.5161 5.64527V5.83532C9.5161 5.83532 9.59734 5.84608 10.2489 5.94067C10.9023 6.03513 11.8061 6.45977 11.8061 6.45977ZM12.6087 9.24664C12.0776 9.58786 11.205 9.41879 11.205 9.41879C11.322 9.58378 11.9558 9.7782 12.2748 9.77255C12.5509 9.76744 12.7956 9.65698 13.0135 9.41879C13.4879 8.90018 13.2945 8.03522 13.179 7.92692C13.179 7.92692 13.1269 8.91348 12.6087 9.24664ZM11.3808 24.6369C10.16 23.4168 10.6058 23.5394 11.3808 22.4523C11.9548 21.6456 14.7548 20.9344 16.1653 20.6211L16.1383 20.4916C15.4235 20.5231 14.3517 20.5609 13.2751 20.5599C11.4313 20.5586 10.687 19.8553 10.2096 19.9449C8.3766 20.2887 9.68008 22.3935 7.52959 22.0949C5.37881 21.7978 5.44982 24.0296 5.44982 24.0296C6.06005 22.788 6.69097 22.9621 7.17658 22.9409C7.73877 22.9163 8.28822 23.3327 9.07802 22.6683C9.25121 22.5234 10.0364 21.2499 9.9235 21.8866C9.85762 22.2581 9.53653 22.6833 9.27982 22.9747C9.09642 23.1829 8.99018 23.3416 9.36334 23.5532C9.49566 23.6294 9.67038 23.7294 9.89593 23.8599C10.7664 24.3608 10.6216 24.9309 10.0548 24.9014C9.65148 24.8792 9.17354 24.6812 8.7733 24.6395C8.61081 24.6226 8.42614 24.6904 8.68389 24.8129C8.81877 24.8771 8.97178 24.9709 9.10459 25.104C9.74292 25.7431 8.97991 25.4911 10.8083 25.3924C11.1974 25.3702 11.4742 25.3343 11.6707 25.2933C12.3974 25.134 11.5407 24.7965 11.3808 24.6369ZM20.7846 25.7011C20.6372 25.4724 20.5187 25.1504 20.3818 24.8636C20.0904 24.2521 20.3767 24.3703 20.1961 24.0183C19.9943 23.6286 19.8931 24.0101 19.3856 23.2313C19.2857 23.0768 19.0844 23.1446 19.0599 23.5174C19.0334 23.8888 19.6568 24.2399 19.9412 25.142C20.2273 26.0453 20.4625 26.1502 20.2301 26.7043C20.0004 27.2589 18.8699 27.2256 18.8699 27.2256C19.7519 28.1451 21.5481 26.8906 20.7846 25.7011Z" fill="#fff"/><path fill-rule="evenodd" clip-rule="evenodd" d="M30.2944 29.9465L29.9275 29.8125L40.7497 0L41.1163 0.133932L30.2944 29.9465Z" fill="#fff"/></svg>