<svg width="92" height="29" viewBox="0 0 92 29" fill="none" xmlns="http://www.w3.org/2000/svg"><path d="M23.232 0.411621H0.506611C0.382088 0.411621 0.288696 0.504116 0.288696 0.627441V24.4602C0.288696 25.2618 0.94244 25.9092 1.75184 25.9092C1.75184 25.9092 9.03641 25.9092 9.37885 25.9092C9.75242 25.9092 9.9392 26.0326 10.0949 26.2176C10.2505 26.4026 11.7448 28.1908 11.7448 28.1908C11.7759 28.2524 11.8382 28.2524 11.9004 28.2524C11.9627 28.2524 11.9938 28.2216 12.0561 28.1908C12.0561 28.1908 13.5504 26.4334 13.706 26.2176C13.8617 26.0326 14.0484 25.9092 14.422 25.9092C14.7645 25.9092 22.049 25.9092 22.049 25.9092C22.8584 25.9092 23.5122 25.2618 23.5122 24.4602V0.627441C23.481 0.504116 23.3565 0.411621 23.232 0.411621Z" fill="#8B0208"/><path d="M23.232 0.411621H0.506611C0.382088 0.411621 0.288696 0.504115 0.288696 0.627441V18.6022C0.288696 19.4038 0.94244 20.0513 1.75184 20.0513C1.75184 20.0513 4.70925 20.0513 5.05169 20.0513C5.42526 20.0513 5.61204 20.1746 5.76769 20.3596C5.92335 20.5446 7.41762 22.3328 7.41762 22.3328C7.44875 22.3945 7.51101 22.3945 7.57327 22.3945C7.63553 22.3945 7.66666 22.3636 7.72892 22.3328C7.72892 22.3328 9.2232 20.5754 9.37885 20.3596C9.5345 20.1746 9.72129 20.0513 10.0949 20.0513C10.4373 20.0513 22.049 20.0513 22.049 20.0513C22.8584 20.0513 23.5122 19.4038 23.5122 18.6022V0.627441C23.481 0.504115 23.3565 0.411621 23.232 0.411621Z" fill="#B7121B"/><path d="M23.232 0.411621H0.506611C0.382088 0.411621 0.288696 0.504115 0.288696 0.627441V11.4185C0.288696 12.2201 0.94244 12.8675 1.75184 12.8675C1.75184 12.8675 13.3324 12.8675 13.6749 12.8675C14.0484 12.8675 14.2352 12.9909 14.3909 13.1758C14.5465 13.3608 16.0408 15.1182 16.0408 15.1182C16.0719 15.1799 16.1342 15.1799 16.1965 15.1799C16.2587 15.1799 16.2899 15.1491 16.3521 15.1182C16.3521 15.1182 17.8464 13.3608 18.002 13.1758C18.1577 12.9909 18.3445 12.8675 18.718 12.8675C19.0605 12.8675 22.0179 12.8675 22.0179 12.8675C22.8273 12.8675 23.481 12.2201 23.481 11.4185V0.627441C23.481 0.504115 23.3565 0.411621 23.232 0.411621Z" fill="#ED1C28"/><path d="M27.0913 5.28285H26.2197V3.92627H26.6244L28.0564 0.688965H28.5233L29.9865 3.92627H30.4223V5.28285H29.5506V4.82038H27.0913V5.28285ZM27.7139 3.89544H28.8969L28.3054 2.41553L27.7139 3.89544Z" fill="#fff"/><path d="M33.5354 1.64523C32.9128 1.64523 32.6015 1.64523 32.01 1.64523V2.23103H33.4109C33.4109 2.53934 33.4109 2.84766 33.4109 3.15597H32.01C32.01 3.40262 32.01 3.61844 32.01 3.86509C32.6326 3.86509 32.975 3.86509 33.5976 3.86509C33.5976 4.17341 33.5976 4.48172 33.5976 4.79004C32.6326 4.79004 31.9166 4.79004 30.9515 4.79004C30.9515 3.43345 30.9515 2.04604 30.9515 0.689453C31.9166 0.689453 32.5703 0.689453 33.5354 0.689453C33.5354 1.0286 33.5354 1.33691 33.5354 1.64523Z" fill="#fff"/><path d="M37.9567 4.8208C37.5832 4.8208 37.2407 4.8208 36.8671 4.8208V1.67599H35.5908V4.8208C35.2172 4.8208 34.8748 4.8208 34.5012 4.8208V0.720215C34.8437 0.720215 35.2172 0.720215 37.9567 0.720215V4.8208Z" fill="#fff"/><path d="M41.4111 4.29632H39.7923L39.5433 4.82045H38.516V4.6663L40.3838 0.658203H40.8508L42.7186 4.6663V4.82045H41.6913L41.4111 4.29632ZM40.5706 2.3231L40.1037 3.4022H41.0376L40.5706 2.3231Z" fill="#fff"/><path d="M43.2174 4.8208C43.2174 3.46422 43.2174 2.0768 43.2174 0.720215C43.8089 0.720215 44.4315 0.720215 45.0541 0.720215C47.0465 0.720215 47.0465 3.77253 45.0541 3.77253H44.2759V4.8208C43.9334 4.8208 43.5598 4.8208 43.2174 4.8208ZM45.0541 1.64516C44.8051 1.64516 44.5249 1.64516 44.307 1.64516C44.307 1.98431 44.307 2.47761 44.307 2.81676H45.0541C45.6145 2.81676 45.6456 1.67599 45.0541 1.64516Z" fill="#fff"/><path d="M46.9224 1.64516C46.9224 1.33684 46.9224 1.02853 46.9224 0.720215H50.0043C50.0043 1.02853 50.0043 1.33684 50.0043 1.64516H48.977V4.8208C48.6346 4.8208 48.2921 4.8208 47.9185 4.8208V1.64516H46.9224Z" fill="#fff"/><path d="M52.8054 4.29632H51.1866L50.9375 4.82045H49.9102V4.6663L51.7781 0.658203H52.245L54.1129 4.6663V4.82045H53.0855L52.8054 4.29632ZM51.9648 2.3231L51.4979 3.4022H52.4318L51.9648 2.3231Z" fill="#fff"/><path d="M58.2843 0.720215H58.6578V4.8208C58.2843 4.8208 57.9418 4.8208 57.5683 4.8208V3.00174L56.6966 3.92669H56.5721L55.7004 3.00174V4.8208C55.3268 4.8208 54.9844 4.8208 54.6108 4.8208V0.720215H55.0155L56.6343 2.50844L58.2843 0.720215Z" fill="#fff"/><path d="M62.3004 1.64523C61.6778 1.64523 61.3665 1.64523 60.775 1.64523V2.23103H62.1759C62.1759 2.53934 62.1759 2.84766 62.1759 3.15597H60.775C60.775 3.40262 60.775 3.61844 60.775 3.86509C61.3976 3.86509 61.7401 3.86509 62.3627 3.86509C62.3627 4.17341 62.3627 4.48172 62.3627 4.79004C61.3976 4.79004 60.6816 4.79004 59.7166 4.79004C59.7166 3.43345 59.7166 2.04604 59.7166 0.689453C60.6816 0.689453 61.3354 0.689453 62.3004 0.689453C62.3004 1.0286 62.3004 1.33691 62.3004 1.64523Z" fill="#fff"/><path d="M66.7217 4.8208C66.3481 4.8208 66.0057 4.8208 65.6321 4.8208V3.18673H64.3557V4.8208C63.9822 4.8208 63.6397 4.8208 63.2662 4.8208V0.720215C63.6086 0.720215 63.9822 0.720215 64.3557 0.720215V2.20013H65.6321V0.720215C66.0057 0.720215 66.3481 0.720215 66.7217 0.720215V4.8208Z" fill="#fff"/><path d="M67.3746 1.64516C67.3746 1.33684 67.3746 1.02853 67.3746 0.720215H70.4566C70.4566 1.02853 70.4566 1.33684 70.4566 1.64516H69.4293V4.8208C69.0868 4.8208 68.7444 4.8208 68.3708 4.8208V1.64516H67.3746Z" fill="#fff"/><path d="M27.1231 11.8502H26.7495V7.74958C27.1231 7.74958 27.4655 7.74958 27.8391 7.74958V9.75363L29.9248 7.71875H30.2984V11.8502C29.9248 11.8502 29.5824 11.8502 29.2088 11.8502V9.84612L27.1231 11.8502Z" fill="#fff"/><path d="M34.8121 11.8501C34.4385 11.8501 34.0961 11.8501 33.7225 11.8501V10.216H32.4461V11.8501C32.0726 11.8501 31.7301 11.8501 31.3566 11.8501V7.74951C31.699 7.74951 32.0726 7.74951 32.4461 7.74951V9.22942H33.7225V7.74951C34.0961 7.74951 34.4385 7.74951 34.8121 7.74951V11.8501Z" fill="#fff"/><path d="M37.5829 11.511C36.5245 11.4802 35.6217 11.0485 35.6217 9.78446C35.6217 8.52037 36.4934 8.08873 37.5829 8.0579V7.71875H38.6102V8.0579C39.6687 8.08873 40.5715 8.48954 40.5715 9.78446C40.5715 11.0485 39.6998 11.4802 38.6102 11.511V11.8502H37.6141V11.511H37.5829ZM37.5829 10.5552V9.0445C37.116 9.07533 36.7113 9.22949 36.7113 9.81529C36.7113 10.3703 37.1471 10.5244 37.5829 10.5552ZM38.5791 9.0445V10.5552C39.0149 10.5244 39.4508 10.3703 39.4508 9.78446C39.4508 9.19866 39.0149 9.0445 38.5791 9.0445Z" fill="#fff"/><path d="M41.0692 9.81585C41.0692 6.97935 45.3341 6.97935 45.3341 9.81585C45.3341 12.6523 41.0692 12.6523 41.0692 9.81585ZM44.2445 9.81585C44.2445 8.33594 42.1588 8.33594 42.1588 9.81585C42.1588 11.2958 44.2445 11.2958 44.2445 9.81585Z" fill="#fff"/><path d="M46.1124 11.8501C46.1124 10.4935 46.1124 9.1061 46.1124 7.74951C46.7039 7.74951 47.3265 7.74951 47.9491 7.74951C49.9415 7.74951 49.9415 10.8018 47.9491 10.8018H47.1709V11.8501C46.8284 11.8501 46.486 11.8501 46.1124 11.8501ZM47.9491 8.67446C47.7001 8.67446 47.4199 8.67446 47.202 8.67446C47.202 9.0136 47.202 9.50691 47.202 9.84605H47.9491C48.5095 9.84605 48.5718 8.70529 47.9491 8.67446Z" fill="#fff"/><path d="M53.895 7.74951H54.2685V11.8501C53.895 11.8501 53.5525 11.8501 53.179 11.8501V10.031L52.3073 10.956H52.1828L51.3111 10.031V11.8501C50.9376 11.8501 50.5951 11.8501 50.2216 11.8501V7.74951H50.6263L52.2451 9.53774L53.895 7.74951Z" fill="#fff"/><path d="M57.7238 11.3266H56.105L55.8559 11.8507H54.8286V11.6966L56.6965 7.68848H57.1634L59.0313 11.6966V11.8507H58.0039L57.7238 11.3266ZM56.8832 9.35337L56.4163 10.4325H57.3502L56.8832 9.35337Z" fill="#fff"/><path d="M59.53 7.74951H60.6196V10.8943H61.8337V7.74951H62.9233V10.956H63.328V12.3126H62.4563V11.8501H59.53V7.74951Z" fill="#fff"/><path d="M64.3545 11.8502H63.981V7.74958C64.3545 7.74958 64.697 7.74958 65.0705 7.74958V9.75363L67.1563 7.71875H67.5299V11.8502C67.1563 11.8502 66.8138 11.8502 66.4403 11.8502V9.84612L64.3545 11.8502Z" fill="#fff"/><path d="M68.3398 9.81585C68.3398 6.97935 72.6047 6.97935 72.6047 9.81585C72.6047 12.6523 68.3398 12.6523 68.3398 9.81585ZM71.5152 9.81585C71.5152 8.33594 69.4294 8.33594 69.4294 9.81585C69.4294 11.2958 71.5152 11.2958 71.5152 9.81585Z" fill="#fff"/><path d="M76.8386 11.8501C76.465 11.8501 76.1226 11.8501 75.749 11.8501V10.216H74.4726V11.8501C74.0991 11.8501 73.7566 11.8501 73.3831 11.8501V7.74951C73.7255 7.74951 74.0991 7.74951 74.4726 7.74951V9.22942H75.749V7.74951C76.1226 7.74951 76.465 7.74951 76.8386 7.74951V11.8501Z" fill="#fff"/><path d="M81.3527 11.8501C80.9791 11.8501 80.6367 11.8501 80.2631 11.8501V10.216H78.9868V11.8501C78.6132 11.8501 78.2708 11.8501 77.8972 11.8501V7.74951C78.2397 7.74951 78.6132 7.74951 78.9868 7.74951V9.22942H80.2631V7.74951C80.6367 7.74951 80.9791 7.74951 81.3527 7.74951V11.8501Z" fill="#fff"/><path d="M83.4691 7.74951V8.98277H84.2474C86.2397 8.98277 86.2397 11.8501 84.2474 11.8501H82.4106V7.74951H83.4691ZM83.4691 9.90772V10.8943C83.7181 10.8943 83.9672 10.8943 84.2162 10.8943C84.8388 10.8943 84.8077 9.90772 84.2162 9.90772H83.4691ZM86.4888 7.74951H87.5472V11.8501H86.4888V7.74951Z" fill="#fff"/><path d="M90.0691 10.5551L89.322 11.85H88.1702V11.6959L89.5088 9.69182L88.3258 7.93443V7.78027H89.4154L90.0691 8.85937H90.1003L90.754 7.78027H91.8436V7.93443L90.6606 9.69182L91.9992 11.6959V11.85H90.8474L90.1003 10.5551H90.0691Z" fill="#fff"/><path d="M26.3141 15.735C26.3141 15.4267 26.3141 15.1184 26.3141 14.8101H29.396C29.396 15.1184 29.396 15.4267 29.396 15.735H28.3687V18.9106C28.0263 18.9106 27.6838 18.9106 27.3103 18.9106V15.735H26.3141Z" fill="#fff"/><path d="M32.6644 15.7351C32.0418 15.7351 31.7305 15.7351 31.139 15.7351V16.3209H32.5399C32.5399 16.6292 32.5399 16.9375 32.5399 17.2458H31.1079C31.1079 17.4925 31.1079 17.7083 31.1079 17.9549C31.7305 17.9549 32.0729 17.9549 32.6955 17.9549C32.6955 18.2633 32.6955 18.5716 32.6955 18.8799C31.7305 18.8799 31.0145 18.8799 30.0494 18.8799C30.0494 17.5233 30.0494 16.1359 30.0494 14.7793C31.0145 14.7793 31.6682 14.7793 32.6333 14.7793C32.6644 15.0876 32.6644 15.3959 32.6644 15.7351Z" fill="#fff"/><path d="M35.0612 17.5849L34.3141 18.8798H33.1622V18.7257L34.5008 16.7216L33.3179 14.9642V14.8101H34.4075L35.0612 15.8892H35.0923L35.7461 14.8101H36.8356V14.9642L35.6527 16.7216L36.9913 18.7257V18.8798H35.8395L35.0923 17.5849H35.0612Z" fill="#fff"/><path d="M41.0382 18.8799C40.6646 18.8799 40.3222 18.8799 39.9486 18.8799V17.2458H38.6723V18.8799C38.2987 18.8799 37.9563 18.8799 37.5827 18.8799V14.7793C37.9251 14.7793 38.2987 14.7793 38.6723 14.7793V16.2592H39.9486V14.7793C40.3222 14.7793 40.6646 14.7793 41.0382 14.7793V18.8799Z" fill="#fff"/><path d="M41.8479 16.8451C41.8479 14.0086 46.1128 14.0086 46.1128 16.8451C46.1128 19.6816 41.8479 19.6816 41.8479 16.8451ZM45.0232 16.8451C45.0232 15.3652 42.9375 15.3652 42.9375 16.8451C42.9375 18.3251 45.0232 18.3251 45.0232 16.8451Z" fill="#fff"/><path d="M47.4199 18.88H46.3926V18.7259L48.2604 14.7178H48.7274L50.5952 18.7259V18.88H49.5679L48.5095 16.4752L47.4199 18.88Z" fill="#fff"/><path d="M50.8442 16.8451C50.8442 14.0086 55.1091 14.0086 55.1091 16.8451C55.1091 19.6816 50.8442 19.6816 50.8442 16.8451ZM54.0196 16.8451C54.0196 15.3652 51.9338 15.3652 51.9338 16.8451C51.9338 18.3251 54.0196 18.3251 54.0196 16.8451Z" fill="#fff"/><path d="M56.977 18.8799C56.6346 18.8799 56.261 18.8799 55.8875 18.8799V14.7793C56.728 14.7793 57.6308 14.7793 58.4713 14.7793C58.4713 15.1184 58.4713 15.3651 58.4713 15.7042H56.977V18.8799Z" fill="#fff"/><path d="M59.6234 18.88H59.2499V14.7794C59.6234 14.7794 59.9659 14.7794 60.3395 14.7794V16.7834L62.4252 14.7485H62.7988V18.88C62.4252 18.88 62.0828 18.88 61.7092 18.88V16.8759L59.6234 18.88Z" fill="#fff"/><path d="M64.2616 18.8798H63.8881V14.7792C64.2616 14.7792 64.6041 14.7792 64.9776 14.7792V16.7833L67.0634 14.7484H67.4369V18.8798C67.0634 18.8798 66.7209 18.8798 66.3474 18.8798V16.8758L64.2616 18.8798ZM65.4135 13.5151C65.1955 13.5151 65.0088 13.546 64.7908 13.5768C64.822 14.2243 65.1955 14.5942 65.8182 14.5942C66.4719 14.5942 66.8455 14.2551 66.8455 13.5768C66.6587 13.546 66.4408 13.5151 66.2229 13.5151C66.1917 13.7618 66.0361 13.8235 65.787 13.8235C65.5691 13.8235 65.4135 13.731 65.4135 13.5151Z" fill="#fff"/><path d="M27.8078 25.9097C27.4654 25.9097 27.0918 25.9097 26.7183 25.9097V21.8091C27.5588 21.8091 28.4616 21.8091 29.3021 21.8091C29.3021 22.1482 29.3021 22.3949 29.3021 22.734H27.8078V25.9097Z" fill="#fff"/><path d="M29.6765 23.8744C29.6765 21.0379 33.9414 21.0379 33.9414 23.8744C33.9414 26.7109 29.6765 26.7109 29.6765 23.8744ZM32.8518 23.8744C32.8518 22.3945 30.766 22.3945 30.766 23.8744C30.766 25.3544 32.8518 25.3544 32.8518 23.8744Z" fill="#fff"/><path d="M34.7189 25.9097C34.7189 24.5531 34.7189 23.1657 34.7189 21.8091C35.3104 21.8091 35.933 21.8091 36.5556 21.8091C38.548 21.8091 38.548 24.8614 36.5556 24.8614H35.7773V25.9097C35.4349 25.9097 35.0613 25.9097 34.7189 25.9097ZM36.5556 22.7649C36.3065 22.7649 36.0264 22.7649 35.8084 22.7649C35.8084 23.104 35.8084 23.5973 35.8084 23.9365H36.5556C37.1159 23.9365 37.1471 22.7649 36.5556 22.7649Z" fill="#fff"/><path d="M38.5792 23.8744C38.5792 21.0379 42.8441 21.0379 42.8441 23.8744C42.8129 26.7109 38.5792 26.7109 38.5792 23.8744ZM41.7545 23.8744C41.7545 22.3945 39.6687 22.3945 39.6687 23.8744C39.6687 25.3544 41.7545 25.3544 41.7545 23.8744Z" fill="#fff"/><path d="M43.9954 26.3717H43.1238V25.0151H43.5285L44.9605 21.7778H45.4274L46.8906 25.0151H47.3264V26.3717H46.4548V25.9092H43.9954V26.3717ZM44.618 25.0151H45.801L45.2095 23.5352L44.618 25.0151Z" fill="#fff"/><path d="M50.4706 25.4159H48.8519L48.6028 25.9401H47.5755V25.7859L49.4433 21.7778H49.9103L51.7781 25.7859V25.9401H50.7197L50.4706 25.4159ZM49.6613 23.4427L49.1943 24.5218H50.1282L49.6613 23.4427Z" fill="#fff"/><path d="M57.5999 21.8091H57.9735V25.9097C57.5999 25.9097 57.2575 25.9097 56.8839 25.9097V24.0906L56.0123 25.0156H55.8877L55.0161 24.0906V25.9097C54.6425 25.9097 54.3001 25.9097 53.9265 25.9097V21.8091H54.3312L55.95 23.5973L57.5999 21.8091Z" fill="#fff"/><path d="M58.7521 23.8744C58.7521 21.0379 63.017 21.0379 63.017 23.8744C63.017 26.7109 58.7521 26.7109 58.7521 23.8744ZM61.9274 23.8744C61.9274 22.3945 59.8417 22.3945 59.8417 23.8744C59.8417 25.3544 61.9274 25.3544 61.9274 23.8744Z" fill="#fff"/><path d="M65.6936 21.7778C66.5653 21.7778 67.468 22.2403 67.6548 23.3502C67.2813 23.3502 66.97 23.3502 66.6275 23.3502C66.4719 22.9494 66.1606 22.7336 65.7247 22.7336C65.1021 22.7336 64.6974 23.1961 64.6974 23.8744C64.6974 24.491 65.1021 25.0151 65.7247 25.0151C66.1606 25.0151 66.5341 24.7993 66.6586 24.3677C67.0011 24.3677 67.3435 24.3677 67.686 24.3677C67.5303 25.5393 66.5964 25.9709 65.7247 25.9709C64.6663 25.9709 63.6078 25.2618 63.6078 23.8744C63.5767 22.487 64.6352 21.7778 65.6936 21.7778Z" fill="#fff"/><path d="M68.4647 25.9097V21.8091C68.8072 21.8091 69.1807 21.8091 69.5543 21.8091V23.3507H69.6166C70.675 23.3507 70.6127 22.5799 70.6127 21.8091C70.9863 21.8091 71.3287 21.8091 71.7023 21.8091C71.7023 22.6415 71.7334 23.4123 70.8929 23.9365L72.0136 25.7555V25.9097H70.8307L69.9279 24.3064C69.7722 24.3373 69.6477 24.3373 69.5232 24.3373V25.9097C69.1807 25.9097 68.8383 25.9097 68.4647 25.9097Z" fill="#fff"/><path d="M75.3758 23.7823C75.7183 23.9673 75.8739 24.2448 75.8739 24.6147C75.8739 25.3239 75.4381 25.9097 74.5976 25.9097H72.6675V21.8091H74.4419C75.1579 21.8091 75.7183 22.364 75.7183 23.0732C75.7183 23.3198 75.5937 23.6281 75.3758 23.7823ZM73.6948 22.7649V23.4123H74.3485C74.7532 23.4123 74.7532 22.7649 74.3485 22.7649H73.6948ZM73.6948 24.3064V25.0156H74.5353C74.9711 25.0156 74.94 24.3064 74.5353 24.3064H73.6948Z" fill="#fff"/><path d="M77.7719 21.8091V23.0423H78.5502C80.5426 23.0423 80.5426 25.9097 78.5502 25.9097H76.7135V21.8091H77.7719ZM77.7719 23.9981V24.9847C78.021 24.9847 78.27 24.9847 78.5191 24.9847C79.1417 24.9847 79.1106 23.9981 78.5191 23.9981H77.7719ZM80.7916 21.8091H81.8501V25.9097H80.7916V21.8091Z" fill="#fff"/></svg>