<svg width="60" height="35" viewBox="0 0 60 35" fill="none" xmlns="http://www.w3.org/2000/svg"><path d="M21.2443 7.36842C20.6085 7.35756 19.9805 7.50458 19.4211 7.79525V21.0943H19.2107V13.2542C19.1172 13.2542 19.0237 13.2766 18.9302 13.2766V13.1868C18.0887 13.2542 17.4342 13.4114 17.2706 13.8607C17.1764 13.967 17.1265 14.1031 17.1303 14.2426V21.5436H16.7096V21.7683H16.2888V23.0488H16.1252V23.4307H16.0551V24.6438H15.6577V21.8357L15.6343 21.7683V21.5436H15.5642L15.5408 21.1842L15.5174 20.9146C15.5408 20.8922 15.5642 20.8922 15.5642 20.8472C15.5642 20.8294 15.5568 20.8122 15.5437 20.7996C15.5305 20.7869 15.5127 20.7798 15.4941 20.7798C15.4755 20.7798 15.4576 20.7869 15.4445 20.7996C15.4313 20.8122 15.4239 20.8294 15.4239 20.8472C15.4239 20.8697 15.4473 20.8922 15.4707 20.9146L15.4473 21.1842L15.4239 21.5436H15.3538V21.6335H15.0967V21.5212L14.8396 21.3864H14.7461L14.4656 21.5212V21.6335H14.2085V21.5436H14.1383L14.115 21.1842L14.0916 20.9146C14.115 20.8922 14.1383 20.8922 14.1383 20.8472C14.1383 20.8294 14.1309 20.8122 14.1178 20.7996C14.1046 20.7869 14.0868 20.7798 14.0682 20.7798C14.0496 20.7798 14.0318 20.7869 14.0186 20.7996C14.0055 20.8122 13.9981 20.8294 13.9981 20.8472C13.9981 20.8697 14.0215 20.8922 14.0448 20.9146L14.0215 21.1842L13.9981 21.5436H14.0215V21.7683L13.9981 21.8357V22.9814H13.6241V20.061H13.6475V19.6566H13.554L13.5072 19.1849L13.4838 18.8479C13.5072 18.8254 13.554 18.803 13.554 18.758C13.554 18.7342 13.5441 18.7113 13.5266 18.6945C13.509 18.6776 13.4853 18.6682 13.4605 18.6682C13.4357 18.6682 13.4119 18.6776 13.3943 18.6945C13.3768 18.7113 13.367 18.7342 13.367 18.758C13.367 18.803 13.3903 18.8254 13.4371 18.8479L13.4137 19.1849L13.367 19.6566H13.2735V19.9487H12.8995V19.6791H12.6657V17.4551H12.6423L12.619 17.2978V17.1855L12.6423 17.163C12.6423 17.1571 12.6399 17.1514 12.6355 17.1471C12.6311 17.1429 12.6252 17.1406 12.619 17.1406L12.5956 17.163C12.5956 17.1855 12.5956 17.1855 12.619 17.1855V17.2978L12.5956 17.4551H12.5722V17.5449H12.5021V17.4551H12.3852V17.3877H12.2216C12.2228 17.3565 12.2308 17.3259 12.245 17.2978C12.2478 17.2363 12.2342 17.1752 12.2056 17.1202C12.177 17.0651 12.1342 17.018 12.0813 16.9833V16.871H12.0112L11.9411 15.4557L11.8943 14.7144L11.9878 14.7593L11.9177 14.6919C11.9632 14.6812 12.0028 14.6545 12.0288 14.6171C12.0547 14.5796 12.0652 14.5342 12.058 14.4897C12.0612 14.4517 12.0516 14.4136 12.0305 14.3813C12.0094 14.3489 11.9781 14.3239 11.9411 14.31C11.9733 14.3278 11.9994 14.3544 12.016 14.3863C12.0326 14.4183 12.0391 14.4543 12.0346 14.4897C12.0305 14.5384 12.01 14.5844 11.9763 14.6209C11.9426 14.6574 11.8974 14.6823 11.8476 14.6919C11.7955 14.6874 11.7472 14.6639 11.7125 14.6264C11.6777 14.5888 11.6592 14.54 11.6606 14.4897C11.6606 14.4549 11.669 14.4205 11.6853 14.3893C11.7015 14.3581 11.7251 14.3309 11.7541 14.31C11.719 14.3264 11.6895 14.352 11.6688 14.3838C11.6482 14.4155 11.6372 14.4523 11.6372 14.4897C11.6379 14.5328 11.6516 14.5748 11.6764 14.6106C11.7013 14.6465 11.7364 14.6747 11.7775 14.6919L11.7073 14.7593L11.8008 14.7144L11.7541 15.4557L11.684 16.871H11.6138V16.9833C11.563 17.0199 11.5218 17.0674 11.4934 17.122C11.465 17.1766 11.4502 17.2368 11.4502 17.2978C11.4502 17.3427 11.4502 17.3877 11.4736 17.3877H11.31V17.4551H11.1931V17.5449H11.123V17.4551H11.0996L11.0762 17.2978V17.1855L11.0996 17.163C11.0996 17.1571 11.0971 17.1514 11.0927 17.1471C11.0884 17.1429 11.0824 17.1406 11.0762 17.1406C11.0585 17.1429 11.0421 17.1508 11.0295 17.163C11.0295 17.1855 11.0295 17.1855 11.0528 17.1855V17.2978L11.0295 17.4551H11.0061V19.7015H10.749V19.9711H10.375V19.6791H10.2815L10.2347 19.2073L10.2113 18.8703C10.2347 18.8479 10.2815 18.8254 10.2815 18.7805C10.2815 18.7567 10.2716 18.7338 10.2541 18.7169C10.2365 18.7001 10.2128 18.6906 10.188 18.6906C10.1632 18.6906 10.1394 18.7001 10.1218 18.7169C10.1043 18.7338 10.0945 18.7567 10.0945 18.7805C10.0945 18.8254 10.1178 18.8479 10.1646 18.8703L10.1412 19.2073L10.0945 19.6791H10.0477V20.0834H10.0711V23.0038H9.27633V21.8582L9.25296 21.7908V21.5661H9.18284L9.15946 21.2067L9.13609 20.9371C9.15946 20.9146 9.18284 20.9146 9.18284 20.8697C9.18284 20.8518 9.17545 20.8347 9.1623 20.822C9.14915 20.8094 9.13131 20.8023 9.11271 20.8023C9.09411 20.8023 9.07627 20.8094 9.06312 20.822C9.04997 20.8347 9.04259 20.8518 9.04259 20.8697C9.04259 20.8922 9.06596 20.9146 9.08933 20.9371L9.06596 21.2067L9.04259 21.5661H8.97246V21.656H8.71534V21.5212L8.45821 21.3864H8.41146L8.15434 21.5212V21.6335H7.89721V21.5436H7.82709L7.80371 21.1842L7.78034 20.9146C7.80371 20.8922 7.82709 20.8922 7.82709 20.8472C7.82709 20.8294 7.8197 20.8122 7.80655 20.7996C7.7934 20.7869 7.77556 20.7798 7.75696 20.7798C7.73836 20.7798 7.72053 20.7869 7.70738 20.7996C7.69423 20.8122 7.68684 20.8294 7.68684 20.8472C7.68684 20.8697 7.71021 20.8922 7.73359 20.9146L7.71021 21.1842L7.68684 21.5436H7.61671V21.7683L7.59334 21.8357V25.7221H7.45309L7.33621 25.9692H7.38296V26.4409H7.12584V26.5308L6.84534 26.8453H6.68172V27.3845H6.58821V27.5642H6.47134V28.2831H6.07397V28.4403H6.14409V29.1816C-1.17227 30.7991 -7.64713 32.7535 -13 35C4.18059 29.7208 27.6257 26.4634 53.4784 26.4634C55.699 26.4634 57.7093 26.4859 59.9065 26.5308L59.8831 19.9487V19.8139L59.6961 17.2304V16.6239H60V16.3543H59.8364V15.9949H59.9299V15.7028H59.6494L59.5792 13.7259V13.5013H59.6026V13.2317H59.5325V13.0071H59.6026V12.7375H59.5325L59.4624 10.9852H59.6494V10.7606H59.7429V10.199H59.6727V10.0866H59.6026V9.59243H59.6727V9.27792H59.4857V8.76123H59.5559V8.51412H59.4857V7.9525H59.5559V7.70539H59.4857V7.09885H59.6961V6.67202H59.7896V6.20026H59.7429V5.45892H59.439V4.76252H59.5091V4.67266H59.3689V3.52696H59.439V3.4371H59.2988V2.33633H59.3923V2.2914H59.2754V1.5276H59.3221V1.43774H59.252V0.718871H59.2988V0.629012H59.2286V0.0898591H59.2754V0H59.1819V0.0898591H59.2286V0.606547H59.1351V0.718871H59.1819V1.43774H59.1117V1.5276H59.1585V2.24647H59.0416V2.33633H59.1351V3.41463H58.9949V3.50449H59.065V4.65019H58.9014V4.74005H58.9715V5.43646H58.6676V6.17779H58.6209V6.64955H58.7144V7.07638H58.9248V7.68293H58.8546V7.93004H58.9248V8.49166H58.8546V8.73877H58.9248V9.25546H58.7611V9.56996H58.8313V10.0642H58.7611V10.1765H58.6676V10.7381H58.7611V10.9628H58.9481L58.878 12.715H58.8079V12.9846H58.878V13.2092H58.8079V13.4788H58.8313V13.7035L58.7611 15.6804H58.4806V15.9724H58.5741V16.3543H58.4339V16.6239H58.7377V17.2304L58.6442 19.8139V19.9487L58.5975 21.4089C58.5683 21.3952 58.5365 21.3876 58.504 21.3864L58.5508 21.7683H58.4105L58.4573 21.3864C58.4081 21.4156 58.3514 21.4311 58.2936 21.4311C58.2358 21.4311 58.1792 21.4156 58.13 21.3864L58.1768 21.7683H57.9664L58.0131 21.3864C57.964 21.4156 57.9073 21.4311 57.8495 21.4311C57.7917 21.4311 57.735 21.4156 57.6859 21.3864L57.7326 21.7683H57.5924L57.6391 21.3864C57.59 21.4156 57.5333 21.4311 57.4755 21.4311C57.4177 21.4311 57.361 21.4156 57.3119 21.3864L57.3586 21.7683H57.2184L57.2651 21.3864C57.216 21.4156 57.1593 21.4311 57.1015 21.4311C57.0437 21.4311 56.987 21.4156 56.9379 21.3864L56.9846 21.7683H56.821V20.9371H56.8444V20.7349H56.5639L56.3535 19.8363L56.1431 20.7349H55.9561V20.982H56.0029V21.8357H55.9094L55.9561 21.4538C55.907 21.483 55.8503 21.4985 55.7925 21.4985C55.7347 21.4985 55.678 21.483 55.6289 21.4538L55.6756 21.8357H55.5354L55.5821 21.4538C55.533 21.483 55.4763 21.4985 55.4185 21.4985C55.3607 21.4985 55.304 21.483 55.2549 21.4538L55.3016 21.8357H55.138L55.1848 21.4538C55.1356 21.483 55.0789 21.4985 55.0211 21.4985C54.9633 21.4985 54.9067 21.483 54.8575 21.4538L54.9043 21.8357H54.7406L54.7874 21.4538C54.7382 21.483 54.6816 21.4985 54.6238 21.4985C54.5659 21.4985 54.5093 21.483 54.4601 21.4538L54.5069 21.8357H54.3666L54.4134 21.4538C54.3642 21.483 54.3076 21.4985 54.2498 21.4985C54.192 21.4985 54.1353 21.483 54.0861 21.4538L54.1329 21.8357H53.9926L54.0394 21.4538C53.9902 21.483 53.9336 21.4985 53.8758 21.4985C53.8179 21.4985 53.7613 21.483 53.7121 21.4538L53.7589 21.8357H53.6186L53.6654 21.4538C53.642 21.4538 53.5953 21.4763 53.5719 21.4763V17.0732L53.5251 16.4442V16.3543H53.6186V16.1746H53.6888V15.7028H53.6186L53.5251 15.4108L53.4083 14.4448L53.2914 15.4108L53.1979 15.7028H53.1278V15.7927L52.9174 15.7028H52.5901V14.9166H52.4499V13.6361H52.4031L52.3096 13.2317H52.2395V12.6027H52.2863V12.3107H52.3564V11.9063H52.2863V10.9852H52.333L52.2395 10.6483L52.0759 10.199H51.6551L51.024 6.24519L51.3279 6.4923L51.1876 6.13286L51.5149 5.90822L51.0941 5.93068L51.0006 5.54878L50.9071 5.93068L50.4864 5.90822L50.8136 6.13286L50.6734 6.4923L50.9773 6.24519L50.3461 10.199H49.9488L49.7851 10.6483L49.6916 10.9852H49.7384V11.9063H49.6683V12.3107H49.7384V12.6027H49.7851V13.2991H49.715L49.6215 13.7035H49.5514V14.984H49.4579V15.7702H49.3176L49.1073 15.8601V15.7702H49.0371L48.9436 15.4782L48.8268 14.5122L48.7099 15.4782L48.6164 15.7702H48.5463V16.242H48.6164V16.4217H48.7099V16.5116L48.6631 17.1406V21.8806H48.5696L48.6164 21.4987C48.5672 21.528 48.5106 21.5434 48.4528 21.5434C48.395 21.5434 48.3383 21.528 48.2891 21.4987L48.3359 21.8806H48.1956L48.2424 21.4987C48.1932 21.528 48.1366 21.5434 48.0788 21.5434C48.021 21.5434 47.9643 21.528 47.9151 21.4987L47.9619 21.8806H47.8216L47.8684 21.4987C47.8192 21.528 47.7626 21.5434 47.7048 21.5434C47.647 21.5434 47.5903 21.528 47.5411 21.4987L47.5879 21.8806H47.4476L47.4944 21.4987C47.4452 21.528 47.3886 21.5434 47.3308 21.5434C47.273 21.5434 47.2163 21.528 47.1671 21.4987L47.2139 21.8806H47.0736L47.1204 21.4987C47.0712 21.528 47.0146 21.5434 46.9568 21.5434C46.899 21.5434 46.8423 21.528 46.7931 21.4987L46.8399 21.8806H46.6061L46.6529 21.4987C46.6037 21.528 46.5471 21.5434 46.4893 21.5434C46.4315 21.5434 46.3748 21.528 46.3256 21.4987L46.3724 21.8806H46.2088L46.2555 21.4987C46.2064 21.528 46.1497 21.5434 46.0919 21.5434C46.0341 21.5434 45.9774 21.528 45.9283 21.4987L45.975 21.8806H45.8815V21.027H45.9049V20.7798H45.5776L45.3673 19.8813L45.1569 20.7798H44.9465V21.027H44.9933V21.8806H44.8998L44.9465 21.4987C44.8974 21.528 44.8407 21.5434 44.7829 21.5434C44.7251 21.5434 44.6684 21.528 44.6193 21.4987L44.666 21.8806H44.5258L44.5725 21.4987C44.5234 21.528 44.4667 21.5434 44.4089 21.5434C44.3511 21.5434 44.2944 21.528 44.2453 21.4987L44.292 21.8806H44.1518L44.1985 21.4987C44.1494 21.528 44.0927 21.5434 44.0349 21.5434C43.9771 21.5434 43.9204 21.528 43.8713 21.4987L43.918 21.8806H43.7076L43.7544 21.4987C43.7052 21.528 43.6486 21.5434 43.5908 21.5434C43.533 21.5434 43.4763 21.528 43.4271 21.4987L43.4739 21.8806H43.3337L43.3804 21.4987C43.3313 21.528 43.2746 21.5434 43.2168 21.5434C43.159 21.5434 43.1023 21.528 43.0532 21.4987L43.0999 21.8806H42.9597L43.0064 21.4987C42.9572 21.528 42.9006 21.5434 42.8428 21.5434C42.785 21.5434 42.7283 21.528 42.6792 21.4987L42.7259 21.8806H42.5857L42.6324 21.4987C42.5832 21.528 42.5266 21.5434 42.4688 21.5434C42.411 21.5434 42.3543 21.528 42.3052 21.4987L42.3519 21.8806H42.2117L42.2584 21.4987C42.2093 21.528 42.1526 21.5434 42.0948 21.5434C42.037 21.5434 41.9803 21.528 41.9312 21.4987L41.9779 21.8806H41.8377L41.8844 21.4987C41.8353 21.528 41.7786 21.5434 41.7208 21.5434C41.663 21.5434 41.6063 21.528 41.5572 21.4987L41.6039 21.8806H41.4637L41.5104 21.4987C41.4613 21.528 41.4046 21.5434 41.3468 21.5434C41.289 21.5434 41.2323 21.528 41.1832 21.4987L41.2299 21.8806H41.0195V21.4763H40.9027V21.1617H40.926V20.9371H40.8559V20.8472L40.6455 20.1059H40.6923V20.016H40.6455V19.432H40.6923V19.3421H40.5053L40.2715 18.7131L40.0378 19.3421H39.8508V19.432H39.8975V20.016H39.8508V20.1059H39.8975L39.6872 20.8472V20.9371H39.617V21.0943H39.6404V21.4089H39.5235V23.1162H39.1963V23.206H39.0327V22.914H38.7989V23.3633H38.495V24.1945H38.0977V22.8017H37.3263V23.0937H37.1159V22.8915H36.2277V21.5436H35.8537L35.3628 11.9063H35.2225V11.8614H35.0589V11.6367H34.568C34.4745 11.0526 34.381 10.6932 34.2642 10.6932C34.2174 10.6932 34.194 10.7381 34.1707 10.7831H31.9033C31.8799 10.7157 31.8332 10.6932 31.8098 10.6932C31.5293 10.6932 31.3189 12.7599 31.3189 15.2985C31.3189 16.0398 31.3423 16.7362 31.3657 17.3652L30.8748 17.3427V15.6579H30.9683V12.5128H30.8748V10.2439H30.9683V7.36842H30.3839V7.05392H29.3554V7.36842H29.1684V17.1855L28.8178 17.3652V16.6014H28.9113V13.1868H28.7009V10.2888H28.7711V6.64955H28.2101V6.29012H27.0413V6.64955H26.7842V10.2664H26.6206V13.5237H26.7374V16.4442L26.5037 16.5789V13.7035C25.8674 13.7158 25.2588 13.9562 24.7973 14.3774C24.5636 16.3543 24.4934 20.69 24.4934 20.69H24.3064V17.3203C24.2831 17.2529 24.2129 17.208 24.1194 17.1181C24.0727 16.8935 23.8623 16.6913 23.4649 16.5116V8.28947H23.2779V8.0199H23.1844V7.77279C23.0873 7.72565 22.9855 7.68802 22.8806 7.66046C22.3542 7.48208 21.8022 7.38356 21.2443 7.36842Z" fill="#EC0E43"/></svg>